<?xml version="1.0" encoding="UTF-8"?>
<svg version="1.1" xmlns="http://www.w3.org/2000/svg" width="500" height="500">
<path d="M0 0 C0.33 0.33 0.66 0.66 1 1 C0.92881832 11.55268385 -0.83851254 22.15880516 -2.18359375 32.60546875 C-2.84668309 37.75595843 -3.47073899 42.91000433 -4.07763672 48.06738281 C-5.21661543 57.74483831 -6.44155804 67.40653819 -7.75 77.0625 C-9.80707006 92.27921109 -11.7182676 107.51382318 -13.625 122.75 C-13.77706909 123.96164825 -13.92913818 125.17329651 -14.08581543 126.42166138 C-14.53001265 129.96322005 -14.97244531 133.50499375 -15.4140625 137.046875 C-15.55477173 138.17129501 -15.69548096 139.29571503 -15.8404541 140.45420837 C-16.46477107 145.48719542 -17.06702525 150.51931664 -17.58496094 155.56445312 C-17.6714389 156.3997052 -17.75791687 157.23495728 -17.84701538 158.09552002 C-18.00033512 159.60842888 -18.14694612 161.12204129 -18.2850647 162.63641357 C-18.94257714 169.16476562 -18.94257714 169.16476562 -21 172 C-23.59658639 172.70955011 -25.91447158 173.15710038 -28.5625 173.5 C-30.12039677 173.73958752 -31.67768075 173.98318849 -33.234375 174.23046875 C-34.03037109 174.35470215 -34.82636719 174.47893555 -35.64648438 174.60693359 C-65.92417523 179.66368487 -98.62341122 191.04336055 -124.2578125 208.0390625 C-126 209 -126 209 -129 209 C-130.42026951 206.15946098 -130.14572133 203.75119652 -130.1673584 200.5737915 C-130.17315178 199.90661346 -130.17894517 199.23943542 -130.18491411 198.55203986 C-130.20301965 196.30585917 -130.21385867 194.05970367 -130.22460938 191.81347656 C-130.23578169 190.20717132 -130.24729492 188.60086841 -130.25912476 186.99456787 C-130.29571708 181.70995335 -130.32090512 176.42531479 -130.34375 171.140625 C-130.34769587 170.24196307 -130.35164173 169.34330114 -130.35570717 168.41740704 C-130.39212575 159.94421691 -130.42357472 151.47101852 -130.44481659 142.99777603 C-130.47240052 132.1543762 -130.52318128 121.31162991 -130.60529089 110.46850228 C-130.66105197 102.84720628 -130.69004817 95.22608777 -130.6992898 87.60459495 C-130.70555206 83.05119418 -130.72371487 78.49855937 -130.77067566 73.94538116 C-130.81432098 69.66055252 -130.82483777 65.37690916 -130.81004715 61.09189606 C-130.81037601 59.52050806 -130.82266965 57.94906943 -130.84789658 56.37788391 C-131.02831992 44.51310946 -131.02831992 44.51310946 -128.47607422 40.75763702 C-126.71243028 39.20964605 -125.07346471 38.08427433 -123 37 C-121.74896484 36.21689453 -121.74896484 36.21689453 -120.47265625 35.41796875 C-119.67730469 35.01191406 -118.88195312 34.60585937 -118.0625 34.1875 C-114.77791851 32.47575357 -111.52576629 30.74214952 -108.33203125 28.8671875 C-77.04212467 10.55755298 -36.53754305 -1.41566126 0 0 Z " fill="#207276" transform="translate(405,163)"/>
<path d="M0 0 C0.71945801 0.2077002 1.43891602 0.41540039 2.18017578 0.62939453 C14.86848756 4.33873185 26.72053727 9.21648934 38.48242188 15.23364258 C41.93473123 16.9973787 45.36964924 18.63599538 49 20 C49 20.66 49 21.32 49 22 C49.94875 22.309375 50.8975 22.61875 51.875 22.9375 C55 24 55 24 57 25 C57 25.66 57 26.32 57 27 C57.556875 27.103125 58.11375 27.20625 58.6875 27.3125 C61.47129258 28.14011401 63.59851873 29.37737752 66 31 C67.43236638 33.86473275 67.1226849 36.301303 67.12025452 39.50454712 C67.12153615 40.5177896 67.12153615 40.5177896 67.12284368 41.55150163 C67.12449693 43.82553939 67.11897966 46.09950414 67.11352539 48.37353516 C67.11324346 49.99942523 67.11340137 51.62531544 67.1139679 53.25120544 C67.11425564 57.67451074 67.10836263 62.0977891 67.10139394 66.52108812 C67.09515656 71.14022721 67.0945563 75.75936687 67.09336853 80.37850952 C67.09025635 89.12973441 67.08204448 97.88094686 67.07201904 106.63216627 C67.06085439 116.59332735 67.05534656 126.55448902 67.05032361 136.5156548 C67.03986178 157.01044349 67.02226452 177.50522096 67 198 C63.49441337 199.19285989 63.12972904 199.06341016 59.515625 197.296875 C58.0889 196.4560929 56.66739192 195.60642216 55.25 194.75 C33.11538892 181.96623999 10.0643305 173.43816476 -14.625 167.125 C-16.36765137 166.67688965 -16.36765137 166.67688965 -18.14550781 166.21972656 C-24.36699244 164.68539208 -30.37054355 163.59860197 -36.77099609 163.20654297 C-39 163 -39 163 -42 162 C-44.56311022 156.546574 -44.76399094 150.41945577 -45.375 144.5 C-46.46324713 134.4991015 -47.70085077 124.52982292 -49.0625 114.5625 C-50.30855699 105.41038606 -51.44550929 96.26645476 -52.35180664 87.07470703 C-52.85963182 82.02596021 -53.62102172 77.07143925 -54.5078125 72.078125 C-55.08648334 68.45913597 -55.49041404 64.83092414 -55.875 61.1875 C-56.76492968 52.77403686 -57.83905881 44.38850344 -58.9375 36 C-60.27551639 25.7574642 -61.56226598 15.51132621 -62.75 5.25 C-62.87753662 4.15558594 -63.00507324 3.06117188 -63.13647461 1.93359375 C-63.25128174 0.92941406 -63.36608887 -0.07476562 -63.484375 -1.109375 C-63.58459961 -1.98561523 -63.68482422 -2.86185547 -63.78808594 -3.76464844 C-64 -6 -64 -6 -64 -9 C-48.41614781 -16.79192609 -15.82251405 -4.57900836 0 0 Z " fill="#207276" transform="translate(158,173)"/>
<path d="M0 0 C18.79630149 -0.98422524 40.52520306 14.85527933 54.6875 25.8125 C55.62529297 26.53324707 55.62529297 26.53324707 56.58203125 27.26855469 C58.09476316 28.46330764 59.55310481 29.72630978 61 31 C61 31.66 61 32.32 61 33 C61.556875 33.226875 62.11375 33.45375 62.6875 33.6875 C65.65855185 35.37377267 67.64522125 37.530354 70 40 C70.928125 40.886875 71.85625 41.77375 72.8125 42.6875 C75 45 75 45 75 47 C76.485 47.495 76.485 47.495 78 48 C84.64427111 56.12522311 99 74.24449463 99 85 C99.66 85 100.32 85 101 85 C101.23976563 84.175 101.47953125 83.35 101.7265625 82.5 C103.22256266 78.38829403 105.19894417 74.78320817 107.375 71 C107.76171875 70.31421875 108.1484375 69.6284375 108.546875 68.921875 C115.98123238 55.84938082 125.47468851 42.78862072 137 33 C137.66 33 138.32 33 139 33 C139.18691406 32.44957031 139.37382812 31.89914063 139.56640625 31.33203125 C141.68284395 27.88921569 144.66976173 25.99706551 147.9375 23.6875 C148.95457031 22.95901855 148.95457031 22.95901855 149.9921875 22.21582031 C151.98610346 20.7976523 153.9902387 19.39559565 156 18 C156.96035156 17.33097656 157.92070312 16.66195312 158.91015625 15.97265625 C170.77410223 8.08125327 185.64307128 0 200 0 C200 7.59 200 15.18 200 23 C195.52976036 24.91581699 191.75327076 26.42225673 187.15307617 27.63427734 C177.39571335 30.21633786 168.82291069 34.15925787 160 39 C158.9171875 39.57878906 157.834375 40.15757812 156.71875 40.75390625 C150.28846293 44.32536724 144.73344637 48.45603714 139.1796875 53.27734375 C137 55 137 55 135 55 C135.33 55.66 135.66 56.32 136 57 C137.0415625 56.2265625 138.083125 55.453125 139.15625 54.65625 C159.57161772 39.7221633 182.14823804 29.91857789 207 25 C208.0725 24.77570313 209.145 24.55140625 210.25 24.3203125 C215.25337911 23.32779436 219.90133107 22.77339249 225 23 C226.70345745 26.40691491 226.22662366 30.18267517 226.25 33.9375 C226.2809375 35.1740332 226.2809375 35.1740332 226.3125 36.43554688 C226.32023437 37.62567383 226.32023437 37.62567383 226.328125 38.83984375 C226.3374707 39.56550537 226.34681641 40.29116699 226.35644531 41.03881836 C225.88659809 43.62394352 225.09742537 44.44379879 223 46 C220.90625 46.66015625 220.90625 46.66015625 218.5 47.0625 C217.61892578 47.21759033 216.73785156 47.37268066 215.83007812 47.5324707 C214.89615234 47.68675537 213.96222656 47.84104004 213 48 C211.07241012 48.34483664 209.14531667 48.69246066 207.21875 49.04296875 C206.30222656 49.20845215 205.38570312 49.37393555 204.44140625 49.54443359 C199.85165991 50.40088026 195.44935219 51.59736184 191 53 C190.29004883 53.21462891 189.58009766 53.42925781 188.84863281 53.65039062 C163.18363973 61.45386626 140.08621634 73.80579622 118.2956543 89.4152832 C111.05263358 94.41522444 104.50747758 96.84069928 95.69140625 95.65625 C87.34465277 93.62104741 80.36686729 88.66861428 73.47583008 83.74023438 C48.03718895 65.81914903 19.41741498 54.02085472 -11 48 C-13.68912743 47.46564596 -16.37609646 46.92313486 -19.0625 46.375 C-20.75052734 46.04628906 -20.75052734 46.04628906 -22.47265625 45.7109375 C-23.30667969 45.47632813 -24.14070313 45.24171875 -25 45 C-26.1353654 42.72926921 -26.12892412 41.45716721 -26.1328125 38.9375 C-26.13410156 38.14085937 -26.13539062 37.34421875 -26.13671875 36.5234375 C-26.13285156 35.69070312 -26.12898438 34.85796875 -26.125 34 C-26.13080078 32.75089844 -26.13080078 32.75089844 -26.13671875 31.4765625 C-26.13542969 30.67992187 -26.13414063 29.88328125 -26.1328125 29.0625 C-26.13168457 28.33160156 -26.13055664 27.60070312 -26.12939453 26.84765625 C-26 25 -26 25 -25 23 C-16.80455561 22.49666876 -9.5373784 23.95683382 -1.625 26 C-0.3970874 26.31324219 0.8308252 26.62648437 2.09594727 26.94921875 C27.15772022 33.56480772 48.49395935 45.27768652 69 61 C70.33200237 62.00177216 71.66477512 63.00252704 73 64 C63.34361043 53.40152364 51.5636984 44.8617122 39 38 C38.03835937 37.44957031 37.07671875 36.89914063 36.0859375 36.33203125 C27.58326637 31.73571857 18.92268257 28.93358855 9.64379883 26.30883789 C8.68368896 26.03547607 7.7235791 25.76211426 6.734375 25.48046875 C5.87038086 25.24223389 5.00638672 25.00399902 4.11621094 24.75854492 C2 24 2 24 0 22 C-0.22705078 19.75341797 -0.22705078 19.75341797 -0.1953125 16.9921875 C-0.18886719 16.00605469 -0.18242187 15.01992187 -0.17578125 14.00390625 C-0.15902344 12.97136719 -0.14226562 11.93882812 -0.125 10.875 C-0.11597656 9.83472656 -0.10695312 8.79445313 -0.09765625 7.72265625 C-0.07403747 5.14820908 -0.04110149 2.57421788 0 0 Z M129.875 60 C129.25625 60.66 128.6375 61.32 128 62 C128.33 62.66 128.66 63.32 129 64 C130.65 62.02 132.3 60.04 134 58 C131.75637427 57.7715451 131.75637427 57.7715451 129.875 60 Z M75 66 C75.33 66.99 75.66 67.98 76 69 C76 68.01 76 67.02 76 66 C75.67 66 75.34 66 75 66 Z " fill="#F27C65" transform="translate(150,117)"/>
<path d="M0 0 C2.04196718 0.37878709 3.85251777 0.93688676 5.76171875 1.75390625 C13.8630129 5.15546383 24.53441012 5.66783522 32.95703125 3.09765625 C35.27545468 2.0614578 35.27545468 2.0614578 37.23828125 0.875 C39 0 39 0 43 0 C43.09341831 16.48962261 43.16396678 32.97915946 43.20724869 49.4689827 C43.22787891 57.12540785 43.25600807 64.78166863 43.30175781 72.43798828 C43.34161177 79.11081353 43.36742948 85.78351976 43.37635398 92.45646071 C43.38157126 95.99018954 43.39384265 99.52357783 43.42292023 103.05719757 C43.45510831 107.00076202 43.45596033 110.94399252 43.45410156 114.88769531 C43.46848267 116.060858 43.48286377 117.23402069 43.49768066 118.44273376 C43.49218201 119.51682999 43.48668335 120.59092621 43.48101807 121.6975708 C43.48470524 122.6304253 43.48839241 123.5632798 43.49219131 124.52440262 C42.84994828 127.75472207 41.49240352 128.92114722 39 131 C37.03515625 132.23046875 37.03515625 132.23046875 35.0625 133.1875 C34.41410156 133.51105469 33.76570313 133.83460938 33.09765625 134.16796875 C26.2254462 136.89381743 17.6665535 137.21951124 10.6875 134.75 C5.90547798 132.66829842 1.929904 130.39485599 -1 126 C-1.24888897 123.6814785 -1.24888897 123.6814785 -1.24723816 120.90048218 C-1.25143265 119.84603409 -1.25562714 118.791586 -1.25994873 117.70518494 C-1.25432922 116.54869949 -1.24870972 115.39221405 -1.24291992 114.20068359 C-1.24481827 112.98265549 -1.24671661 111.76462738 -1.24867249 110.50968933 C-1.25174512 107.16890528 -1.24586579 103.82836804 -1.23571944 100.4876132 C-1.22694246 96.99537524 -1.2286963 93.50314151 -1.2290802 90.01089478 C-1.22814361 84.14819094 -1.21945903 78.28553886 -1.20581055 72.42285156 C-1.19007043 65.63645482 -1.18481295 58.85011471 -1.1855461 52.06370103 C-1.18615553 45.54273018 -1.18105886 39.02177783 -1.17275429 32.50081253 C-1.16921608 29.72171509 -1.16739028 26.94262421 -1.16686058 24.16352463 C-1.16567351 20.28917166 -1.15597767 16.41486625 -1.14526367 12.54052734 C-1.14571686 11.37999344 -1.14617004 10.21945953 -1.14663696 9.02375793 C-1.14237198 7.97494949 -1.13810699 6.92614105 -1.13371277 5.84555054 C-1.13203692 4.9285758 -1.13036108 4.01160107 -1.12863445 3.06683922 C-1 1 -1 1 0 0 Z " fill="#1E7074" transform="translate(229,248)"/>
<path d="M0 0 C8.19544439 -0.50333124 15.4626216 0.95683382 23.375 3 C25.2168689 3.46986328 25.2168689 3.46986328 27.09594727 3.94921875 C51.51498605 10.39514435 77.86059796 21.86059796 96 40 C96.125 42.625 96.125 42.625 96 45 C96.61875 45.226875 97.2375 45.45375 97.875 45.6875 C100.61410209 47.37929835 101.05024472 48.99244161 102 52 C100.875 53.5625 100.875 53.5625 99 55 C94.58249068 54.80793438 91.62924479 53.45507736 88 51 C88.99 50.01 89.98 49.02 91 48 C87.78656462 46.92885487 85.36292201 46.92844847 82 47 C75.19849291 47 69.21521061 43.81123009 63.3125 40.8125 C47.5627924 33.11274671 31.14821661 28.39433581 14 25 C11.31087257 24.46564596 8.62390354 23.92313486 5.9375 23.375 C4.81214844 23.15585938 3.68679687 22.93671875 2.52734375 22.7109375 C1.69332031 22.47632813 0.85929687 22.24171875 0 22 C-1.1353654 19.72926921 -1.12892412 18.45716721 -1.1328125 15.9375 C-1.13410156 15.14085937 -1.13539062 14.34421875 -1.13671875 13.5234375 C-1.13285156 12.69070312 -1.12898438 11.85796875 -1.125 11 C-1.13080078 9.75089844 -1.13080078 9.75089844 -1.13671875 8.4765625 C-1.13542969 7.67992187 -1.13414063 6.88328125 -1.1328125 6.0625 C-1.13168457 5.33160156 -1.13055664 4.60070312 -1.12939453 3.84765625 C-1 2 -1 2 0 0 Z " fill="#F17A63" transform="translate(125,140)"/>
<path d="M0 0 C0 7.59 0 15.18 0 23 C-4.47023964 24.91581699 -8.24672924 26.42225673 -12.84692383 27.63427734 C-22.59925765 30.21500705 -31.1879132 34.14604422 -40 39 C-41.10601562 39.60199219 -42.21203125 40.20398438 -43.3515625 40.82421875 C-48.99293002 44.00195109 -54.11378015 47.43701884 -59.0625 51.6171875 C-61.1270941 53.09070829 -62.47610875 53.76592944 -65 54 C-65.99 53.34 -66.98 52.68 -68 52 C-68 51.01 -68 50.02 -68 49 C-69.65 49.66 -71.3 50.32 -73 51 C-71.34792505 44.06128522 -68.81762998 39.2918976 -63 35 C-61.0040278 34.32136945 -59.00431449 33.65358081 -57 33 C-55.30911778 31.02043058 -53.64169528 29.02054804 -52 27 C-50.35448038 26.28272222 -48.68577711 25.61674772 -47 25 C-45.91192674 24.15701255 -44.85023155 23.27923696 -43.8125 22.375 C-41 20 -41 20 -39 20 C-38.7525 19.443125 -38.505 18.88625 -38.25 18.3125 C-35.21238453 12.69291139 -31.72993648 9.93990855 -25.9375 7.4375 C-25.27427734 7.14157959 -24.61105469 6.84565918 -23.92773438 6.54077148 C-21.95973546 5.67372278 -19.98318863 4.83164329 -18 4 C-16.94941406 3.55914062 -15.89882813 3.11828125 -14.81640625 2.6640625 C-9.23576644 0.48134346 -6.34411457 0 0 0 Z " fill="#F27B64" transform="translate(350,117)"/>
<path d="M0 0 C4.3454606 0.65840312 7.98654496 2.24867416 12 4 C19.82046995 6.35249909 27.62900704 5.28604594 35 2 C35.99 1.34 36.98 0.68 38 0 C40.6875 -0.125 40.6875 -0.125 43 0 C43.0990914 4.05664947 43.17157106 8.1128277 43.21972656 12.17041016 C43.23980642 13.5497668 43.26707666 14.92903869 43.30175781 16.30810547 C43.35042817 18.29356979 43.37086418 20.27966254 43.390625 22.265625 C43.41157227 23.45961914 43.43251953 24.65361328 43.45410156 25.88378906 C42.91025974 29.61583049 41.9145147 30.70035039 39 33 C31.095847 37.96307281 21.98467082 37.9419413 13 37 C9.44721554 36.00931972 6.24506237 34.74734127 3 33 C3 32.34 3 31.68 3 31 C2.01 30.67 1.02 30.34 0 30 C-1.3463268 27.30734639 -1.12962636 25.19885751 -1.1328125 22.1875 C-1.13410156 21.02992188 -1.13539063 19.87234375 -1.13671875 18.6796875 C-1.13285156 17.46539062 -1.12898437 16.25109375 -1.125 15 C-1.12886719 13.78570312 -1.13273438 12.57140625 -1.13671875 11.3203125 C-1.13542969 10.16273438 -1.13414062 9.00515625 -1.1328125 7.8125 C-1.13168457 6.74644531 -1.13055664 5.68039063 -1.12939453 4.58203125 C-1 2 -1 2 0 0 Z " fill="#297679" transform="translate(229,210)"/>
<path d="M0 0 C0.99 0.495 0.99 0.495 2 1 C-2.66557852 7.43528072 -9.11887518 12.593217 -16.2578125 16.11328125 C-18.16487118 16.90717364 -18.16487118 16.90717364 -19.3125 18.9375 C-21.30822689 21.37672175 -23.28009284 21.96816159 -26.15625 23.1015625 C-30.04419344 24.99611121 -33.13439692 27.93746252 -34.81640625 31.9453125 C-35.45702666 34.05688521 -35.45702666 34.05688521 -36 37 C-34.02 36.505 -34.02 36.505 -32 36 C-31.67 36.99 -31.34 37.98 -31 39 C-29.35 39.33 -27.7 39.66 -26 40 C-26.495 40.99 -26.495 40.99 -27 42 C-27.66 42 -28.32 42 -29 42 C-28.67 42.66 -28.34 43.32 -28 44 C-25.36 42.02 -22.72 40.04 -20 38 C-19.01 38.495 -19.01 38.495 -18 39 C-18.58007812 39.44730469 -19.16015625 39.89460938 -19.7578125 40.35546875 C-21.37783858 41.60925131 -22.99353141 42.86864747 -24.60546875 44.1328125 C-26.01099196 45.2287996 -27.42629266 46.31279336 -28.86328125 47.3671875 C-31.58027675 49.43021634 -32.88896249 50.5985567 -33.8125 53.9375 C-35.23187822 57.59800172 -36.33177213 58.03840393 -39.625 60 C-42.04394005 61.39459019 -42.04394005 61.39459019 -44 63 C-44.7555432 66.2587435 -44.7555432 66.2587435 -44 69 C-41.36 68.67 -38.72 68.34 -36 68 C-36 67.01 -36 66.02 -36 65 C-34.906875 64.690625 -33.81375 64.38125 -32.6875 64.0625 C-30.44592006 63.41662103 -28.2130649 62.7376883 -26 62 C-25.86335938 61.35675781 -25.72671875 60.71351563 -25.5859375 60.05078125 C-25.39257812 59.37402344 -25.19921875 58.69726562 -25 58 C-23.0390625 56.91796875 -23.0390625 56.91796875 -20.625 56.1875 C-19.43777344 55.80658203 -19.43777344 55.80658203 -18.2265625 55.41796875 C-16 55 -16 55 -13 56 C-14.52753906 56.87398437 -14.52753906 56.87398437 -16.0859375 57.765625 C-25.69438186 63.31398565 -34.98836666 69.20840512 -44.171875 75.43359375 C-52.18305969 80.83646319 -58.67931012 83.78649361 -68.45703125 82.55859375 C-72.58740177 81.65130806 -76.2612407 79.94162621 -80 78 C-76.68053929 76.8935131 -75.62284776 77.14239292 -72.3125 77.9375 C-66.20339881 79.2485042 -60.6538458 80.23076903 -55 77 C-53.68 77 -52.36 77 -51 77 C-51 76.34 -51 75.68 -51 75 C-49.02 74.505 -49.02 74.505 -47 74 C-47 72.35 -47 70.7 -47 69 C-48.98 68.67 -50.96 68.34 -53 68 C-50.64593858 63.0664883 -48.13615289 58.48021842 -45 54 C-45.66 53.34 -46.32 52.68 -47 52 C-47.45375 52.495 -47.9075 52.99 -48.375 53.5 C-50 55 -50 55 -52 55 C-52.2165625 55.928125 -52.2165625 55.928125 -52.4375 56.875 C-53 59 -53 59 -54 61 C-54.66 61 -55.32 61 -56 61 C-56.02578125 61.59167969 -56.0515625 62.18335938 -56.078125 62.79296875 C-56.45704414 68.0720013 -57.10636661 71.10636661 -61 75 C-63.375 74.75 -63.375 74.75 -66 74 C-67.375 72.1875 -67.375 72.1875 -68 70 C-67.625 67.75 -67.625 67.75 -67 66 C-66.34 67.98 -65.68 69.96 -65 72 C-64.34 72 -63.68 72 -63 72 C-62.76023438 71.175 -62.52046875 70.35 -62.2734375 69.5 C-60.77743734 65.38829403 -58.80105583 61.78320817 -56.625 58 C-56.23828125 57.31421875 -55.8515625 56.6284375 -55.453125 55.921875 C-48.01876762 42.84938082 -38.52531149 29.78862072 -27 20 C-26.34 20 -25.68 20 -25 20 C-24.73590332 19.39406006 -24.47180664 18.78812012 -24.19970703 18.16381836 C-22.93365068 15.88033088 -21.90227389 14.88846508 -19.8046875 13.37890625 C-19.17457764 12.92032227 -18.54446777 12.46173828 -17.89526367 11.98925781 C-17.22857666 11.51842773 -16.56188965 11.04759766 -15.875 10.5625 C-15.19864502 10.07749023 -14.52229004 9.59248047 -13.82543945 9.09277344 C-4.63869061 2.5467321 -4.63869061 2.5467321 0 0 Z M-34.125 47 C-34.74375 47.66 -35.3625 48.32 -36 49 C-35.67 49.66 -35.34 50.32 -35 51 C-33.35 49.02 -31.7 47.04 -30 45 C-32.24362573 44.7715451 -32.24362573 44.7715451 -34.125 47 Z " fill="#F38E7C" transform="translate(314,130)"/>
<path d="M0 0 C5.49357548 5.49357548 8.02378865 11.51862846 10 19 C10.33 19.99 10.66 20.98 11 22 C13.01508358 22.73323796 13.01508358 22.73323796 15 23 C16.96541379 19.49033252 17.94513932 15.8678225 19 12 C19.33 11.01 19.66 10.02 20 9 C20.66 9 21.32 9 22 9 C22.226875 8.0925 22.45375 7.185 22.6875 6.25 C24.18127977 2.55111676 25.75400577 1.22094342 29 -1 C29.99 0.32 30.98 1.64 32 3 C31.34 3 30.68 3 30 3 C29.88785156 3.57234375 29.77570313 4.1446875 29.66015625 4.734375 C28.92776966 7.24789112 27.86145147 9.05930543 26.4375 11.25 C25.98246094 11.95640625 25.52742188 12.6628125 25.05859375 13.390625 C24.53458984 14.18726563 24.53458984 14.18726563 24 15 C25.98 15.33 27.96 15.66 30 16 C29.67 17.98 29.34 19.96 29 22 C27.68 22.33 26.36 22.66 25 23 C25 23.66 25 24.32 25 25 C14.50948702 29.49593413 6.83560718 27.77497257 -4 25 C-4.33 23.35 -4.66 21.7 -5 20 C-5.66 20 -6.32 20 -7 20 C-7 19.34 -7 18.68 -7 18 C-3.53846154 15 -3.53846154 15 -1 15 C-1.5053125 14.33613281 -2.010625 13.67226562 -2.53125 12.98828125 C-3.1809375 12.10527344 -3.830625 11.22226563 -4.5 10.3125 C-5.1496875 9.44238281 -5.799375 8.57226562 -6.46875 7.67578125 C-8.11983606 4.7905926 -8.32898077 3.26043445 -8 0 C-4.95588012 -1.52205994 -3.23094106 -0.95027678 0 0 Z " fill="#F47861" transform="translate(238,182)"/>
<path d="M0 0 C3.98622483 1.32874161 5.27669989 3.89670577 7.5 7.25 C8.08587891 8.11044922 8.08587891 8.11044922 8.68359375 8.98828125 C9.8060908 10.64746039 10.90352716 12.32350892 12 14 C12.91265625 15.38445312 12.91265625 15.38445312 13.84375 16.796875 C14.2253125 17.52390625 14.606875 18.2509375 15 19 C14.67 19.66 14.34 20.32 14 21 C13.505 19.515 13.505 19.515 13 18 C10.36 18 7.72 18 5 18 C6.46338577 25.02425168 9.9539869 29.9539869 15 35 C14.2575 34.79375 13.515 34.5875 12.75 34.375 C9.67669159 33.95591249 8.57213134 34.38050989 6 36 C6.99 36.66 7.98 37.32 9 38 C9.1875 40.625 9.1875 40.625 9 43 C5.0900328 41.22981584 1.6543535 38.78841159 -1.875 36.375 C-9.04326828 31.52511999 -16.42484358 27.17859168 -24 23 C-20.72939407 20.81959605 -20.23625511 20.77916461 -16.5625 21.25 C-15.80066406 21.33765625 -15.03882813 21.4253125 -14.25390625 21.515625 C-11.90561448 22.02028389 -10.0920685 22.83721022 -8 24 C-8.99 24.99 -9.98 25.98 -11 27 C-6.83565666 29.47954966 -6.83565666 29.47954966 -2.125 29.6875 C-1.42375 29.460625 -0.7225 29.23375 0 29 C0 27.68 0 26.36 0 25 C-1.0209375 24.01 -1.0209375 24.01 -2.0625 23 C-2.701875 22.34 -3.34125 21.68 -4 21 C-3.75 18.75 -3.75 18.75 -3 17 C-1.68 18.32 -0.36 19.64 1 21 C1.66 20.67 2.32 20.34 3 20 C3.69227032 17.19019327 3.69227032 17.19019327 4.125 13.9375 C4.29257813 12.83277344 4.46015625 11.72804687 4.6328125 10.58984375 C4.75398438 9.73519531 4.87515625 8.88054687 5 8 C4.34 8 3.68 8 3 8 C0.95830515 5.09451118 0 3.59857954 0 0 Z " fill="#EE846F" transform="translate(225,164)"/>
<path d="M0 0 C0.66 0 1.32 0 2 0 C3.43236638 2.86473275 3.1226849 5.301303 3.12025452 8.50454712 C3.12110894 9.18004211 3.12196337 9.8555371 3.12284368 10.55150163 C3.12449693 12.82553939 3.11897966 15.09950414 3.11352539 17.37353516 C3.11324346 18.99942523 3.11340137 20.62531544 3.1139679 22.25120544 C3.11425564 26.67451074 3.10836263 31.0977891 3.10139394 35.52108812 C3.09515656 40.14022721 3.0945563 44.75936687 3.09336853 49.37850952 C3.09025635 58.12973441 3.08204448 66.88094686 3.07201904 75.63216627 C3.06085439 85.59332735 3.05534656 95.55448902 3.05032361 105.5156548 C3.03986178 126.01044349 3.02226452 146.50522096 3 167 C1.109375 167.58984375 1.109375 167.58984375 -1 168 C-2.75 166.5625 -2.75 166.5625 -4 165 C-2.35 165.33 -0.7 165.66 1 166 C0.67 111.22 0.34 56.44 0 0 Z " fill="#9DC6C5" transform="translate(222,204)"/>
<path d="M0 0 C0 0.99 0 1.98 0 3 C-0.99 3 -1.98 3 -3 3 C-3 57.45 -3 111.9 -3 168 C-2.34 168.33 -1.68 168.66 -1 169 C-1.99 169 -2.98 169 -4 169 C-5.42427846 166.15144307 -5.13256819 163.73957926 -5.14044189 160.55360413 C-5.14341302 159.88430939 -5.14638414 159.21501465 -5.1494453 158.52543825 C-5.15814941 156.27223604 -5.15964197 154.01908685 -5.16113281 151.76586914 C-5.16575971 150.15469753 -5.1707842 148.54352702 -5.17617798 146.93235779 C-5.1893148 142.54811751 -5.19574922 138.16389256 -5.20018864 133.77963567 C-5.20311679 131.04282565 -5.20722107 128.30601986 -5.21169281 125.56921196 C-5.22537001 117.0128888 -5.23503605 108.45657525 -5.2388947 99.90024191 C-5.24337866 90.01075315 -5.26094126 80.12140238 -5.2898953 70.23195559 C-5.31148033 62.59541064 -5.32159725 54.95890461 -5.32293582 47.32232946 C-5.32398597 42.75756274 -5.32993839 38.1929257 -5.34775543 33.62819099 C-5.3641817 29.33624908 -5.36641831 25.04453508 -5.35761642 20.75257301 C-5.35684316 19.17513165 -5.36122663 17.5976783 -5.37107468 16.02026749 C-5.38370857 13.87103 -5.37796513 11.72261029 -5.36749268 9.57337952 C-5.36895924 8.36935014 -5.3704258 7.16532076 -5.3719368 5.92480564 C-5 3 -5 3 -3.60203171 1.08916378 C-2 0 -2 0 0 0 Z " fill="#AFD4D4" transform="translate(280,203)"/>
<path d="M0 0 C0.495 0.99 0.495 0.99 1 2 C-0.23289491 5.69868473 -1.26200321 5.9375699 -4.5625 7.8125 C-7.0164545 9.28825133 -7.0164545 9.28825133 -9 11 C-9.7555432 14.2587435 -9.7555432 14.2587435 -9 17 C-5.04 16.505 -5.04 16.505 -1 16 C-1 15.01 -1 14.02 -1 13 C0.093125 12.690625 1.18625 12.38125 2.3125 12.0625 C4.55407994 11.41662103 6.7869351 10.7376883 9 10 C9.13664062 9.35675781 9.27328125 8.71351563 9.4140625 8.05078125 C9.60742188 7.37402344 9.80078125 6.69726562 10 6 C11.9609375 4.91796875 11.9609375 4.91796875 14.375 4.1875 C15.16648437 3.93355469 15.95796875 3.67960938 16.7734375 3.41796875 C19 3 19 3 22 4 C20.47246094 4.87398437 20.47246094 4.87398437 18.9140625 5.765625 C9.30561814 11.31398565 0.01163334 17.20840512 -9.171875 23.43359375 C-17.18305969 28.83646319 -23.67931012 31.78649361 -33.45703125 30.55859375 C-37.58740177 29.65130806 -41.2612407 27.94162621 -45 26 C-41.68053929 24.8935131 -40.62284776 25.14239292 -37.3125 25.9375 C-31.20339881 27.2485042 -25.6538458 28.23076903 -20 25 C-18.68 25 -17.36 25 -16 25 C-16 24.34 -16 23.68 -16 23 C-14.68 22.67 -13.36 22.34 -12 22 C-12 20.35 -12 18.7 -12 17 C-13.98 16.67 -15.96 16.34 -18 16 C-13.01686341 5.80607083 -13.01686341 5.80607083 -11 3 C-10.01 3 -9.02 3 -8 3 C-8.309375 3.598125 -8.61875 4.19625 -8.9375 4.8125 C-10.10209704 7.08956772 -10.10209704 7.08956772 -11 10 C-10.21625 9.175 -9.4325 8.35 -8.625 7.5 C-6 5 -6 5 -4 5 C-3.71125 4.360625 -3.4225 3.72125 -3.125 3.0625 C-2 1 -2 1 0 0 Z " fill="#E88169" transform="translate(279,182)"/>
<path d="M0 0 C1.32 0 2.64 0 4 0 C4.09341831 16.48962261 4.16396678 32.97915946 4.20724869 49.4689827 C4.22787891 57.12540785 4.25600807 64.78166863 4.30175781 72.43798828 C4.34161177 79.11081353 4.36742948 85.78351976 4.37635398 92.45646071 C4.38157126 95.99018954 4.39384265 99.52357783 4.42292023 103.05719757 C4.45510831 107.00076202 4.45596033 110.94399252 4.45410156 114.88769531 C4.46848267 116.060858 4.48286377 117.23402069 4.49768066 118.44273376 C4.49218201 119.51682999 4.48668335 120.59092621 4.48101807 121.6975708 C4.48470524 122.6304253 4.48839241 123.5632798 4.49219131 124.52440262 C3.85691874 127.71966241 2.44307771 128.93063621 0 131 C-0.99 130.67 -1.98 130.34 -3 130 C-2.34 129.67 -1.68 129.34 -1 129 C-0.34444881 126.47266765 -0.34444881 126.47266765 0 124 C0.33 124 0.66 124 1 124 C1.33 83.74 1.66 43.48 2 2 C1.01 1.67 0.02 1.34 -1 1 C-0.67 0.67 -0.34 0.34 0 0 Z " fill="#98BFC2" transform="translate(268,248)"/>
<path d="M0 0 C2.0625 0.4375 2.0625 0.4375 4 1 C3.01 1.33 2.02 1.66 1 2 C1.06051342 18.22901633 1.13799819 34.4578489 1.23571491 50.68667984 C1.28068987 58.2219325 1.32010054 65.75713771 1.34643555 73.29248047 C1.36940195 79.85991879 1.40278459 86.42720718 1.44870156 92.99452662 C1.47265234 96.4722369 1.49136885 99.94979853 1.49761391 103.42758942 C1.50477881 107.30898847 1.53519768 111.19001472 1.56762695 115.07128906 C1.56619186 116.22575027 1.56475677 117.38021149 1.5632782 118.56965637 C1.57581635 119.62692429 1.58835449 120.6841922 1.60127258 121.77349854 C1.60588155 122.69160435 1.61049051 123.60971016 1.61523914 124.55563736 C2.06882559 127.43724482 3.0920404 128.83559326 5 131 C1.83884224 129.63016497 1.0072908 129.0109362 -1 126 C-1.24888897 123.6814785 -1.24888897 123.6814785 -1.24723816 120.90048218 C-1.25143265 119.84603409 -1.25562714 118.791586 -1.25994873 117.70518494 C-1.25432922 116.54869949 -1.24870972 115.39221405 -1.24291992 114.20068359 C-1.24481827 112.98265549 -1.24671661 111.76462738 -1.24867249 110.50968933 C-1.25174512 107.16890528 -1.24586579 103.82836804 -1.23571944 100.4876132 C-1.22694246 96.99537524 -1.2286963 93.50314151 -1.2290802 90.01089478 C-1.22814361 84.14819094 -1.21945903 78.28553886 -1.20581055 72.42285156 C-1.19007043 65.63645482 -1.18481295 58.85011471 -1.1855461 52.06370103 C-1.18615553 45.54273018 -1.18105886 39.02177783 -1.17275429 32.50081253 C-1.16921608 29.72171509 -1.16739028 26.94262421 -1.16686058 24.16352463 C-1.16567351 20.28917166 -1.15597767 16.41486625 -1.14526367 12.54052734 C-1.14571686 11.37999344 -1.14617004 10.21945953 -1.14663696 9.02375793 C-1.14237198 7.97494949 -1.13810699 6.92614105 -1.13371277 5.84555054 C-1.13203692 4.9285758 -1.13036108 4.01160107 -1.12863445 3.06683922 C-1 1 -1 1 0 0 Z " fill="#C4D7D7" transform="translate(229,248)"/>
<path d="M0 0 C0 7.59 0 15.18 0 23 C-4.84405172 25.07602217 -9.24194439 26.79744707 -14.25 28.25 C-16.05210937 28.78367188 -16.05210937 28.78367188 -17.890625 29.328125 C-21 30 -21 30 -24 29 C-18.98476431 25.86547769 -14.76108674 24.29127806 -9 23 C-8.67 22.67 -8.34 22.34 -8 22 C-6.35 22 -4.7 22 -3 22 C-3 15.73 -3 9.46 -3 3 C-4.98 3.66 -6.96 4.32 -9 5 C-11.16015625 5.2734375 -11.16015625 5.2734375 -13.0625 5.375 C-16.97164826 5.65114398 -16.97164826 5.65114398 -19.25 7.875 C-23.58591867 11.22548261 -28.70845395 11.8859903 -34 13 C-32.41773123 9.83546246 -29.22266451 9.029851 -26.125 7.625 C-25.44824219 7.31554443 -24.77148438 7.00608887 -24.07421875 6.68725586 C-15.84056718 2.96829911 -9.17748477 0 0 0 Z " fill="#E89D90" transform="translate(350,117)"/>
<path d="M0 0 C6.65050424 -0.24991456 12.56986533 0.26044666 19 2 C19 2.33 19 2.66 19 3 C13.06 2.67 7.12 2.34 1 2 C1 7.94 1 13.88 1 20 C6.039541 20.57586763 6.039541 20.57586763 11.08081055 21.13623047 C15.07567702 21.61405873 18.25460409 22.50184163 22 24 C26.29278571 24.90994799 30.62780141 25.62219473 34.95898438 26.32421875 C36.26899414 26.56205078 36.26899414 26.56205078 37.60546875 26.8046875 C38.40106201 26.93858887 39.19665527 27.07249023 40.01635742 27.21044922 C42 28 42 28 43.2746582 30.07470703 C43.514021 30.71005371 43.75338379 31.34540039 44 32 C37.59308418 31.2462452 37.59308418 31.2462452 34.7890625 30.08203125 C31.11931882 28.65833517 27.40561731 27.88181177 23.5625 27.0625 C22.38119507 26.80364014 22.38119507 26.80364014 21.17602539 26.53955078 C17.37088483 25.70898906 13.56173448 24.90609736 9.7421875 24.14453125 C7.85886719 23.76361328 7.85886719 23.76361328 5.9375 23.375 C4.81214844 23.15585938 3.68679687 22.93671875 2.52734375 22.7109375 C1.69332031 22.47632813 0.85929687 22.24171875 0 22 C-1.1353654 19.72926921 -1.12892412 18.45716721 -1.1328125 15.9375 C-1.13410156 15.14085937 -1.13539062 14.34421875 -1.13671875 13.5234375 C-1.13285156 12.69070312 -1.12898438 11.85796875 -1.125 11 C-1.13080078 9.75089844 -1.13080078 9.75089844 -1.13671875 8.4765625 C-1.13542969 7.67992187 -1.13414063 6.88328125 -1.1328125 6.0625 C-1.13168457 5.33160156 -1.13055664 4.60070312 -1.12939453 3.84765625 C-1 2 -1 2 0 0 Z " fill="#F1C1B5" transform="translate(125,140)"/>
<path d="M0 0 C1.32 0.66 2.64 1.32 4 2 C4 3.32 4 4.64 4 6 C6.475 6.99 6.475 6.99 9 8 C9 8.66 9 9.32 9 10 C9.66 10 10.32 10 11 10 C11.05447047 11.41623216 11.09300508 12.83308191 11.125 14.25 C11.14820313 15.03890625 11.17140625 15.8278125 11.1953125 16.640625 C10.9828378 19.20731941 10.28654105 20.7916067 9 23 C7.58155991 21.43910974 6.16532975 19.8762111 4.75 18.3125 C3.96109375 17.44238281 3.1721875 16.57226562 2.359375 15.67578125 C1.58078125 14.79277344 0.8021875 13.90976563 0 13 C-0.75796875 12.14792969 -1.5159375 11.29585937 -2.296875 10.41796875 C-4 8 -4 8 -4 4 C-2 1.75 -2 1.75 0 0 Z " fill="#F47A62" transform="translate(219,162)"/>
<path d="M0 0 C3.98622483 1.32874161 5.27669989 3.89670577 7.5 7.25 C7.89058594 7.82363281 8.28117188 8.39726562 8.68359375 8.98828125 C9.8060908 10.64746039 10.90352716 12.32350892 12 14 C12.91265625 15.38445312 12.91265625 15.38445312 13.84375 16.796875 C14.2253125 17.52390625 14.606875 18.2509375 15 19 C14.67 19.66 14.34 20.32 14 21 C13.67 20.01 13.34 19.02 13 18 C10.36 18 7.72 18 5 18 C6.19590661 23.0826031 7.54572941 25.97001765 11 30 C11 30.66 11 31.32 11 32 C8.20203231 30.93870191 7.17084383 30.32460328 5.75 27.625 C3.27467391 23.91201086 0.02327617 22.71060911 -4 21 C-3.67 19.68 -3.34 18.36 -3 17 C-1.68 18.32 -0.36 19.64 1 21 C1.66 20.67 2.32 20.34 3 20 C3.69227032 17.19019327 3.69227032 17.19019327 4.125 13.9375 C4.37636719 12.28041016 4.37636719 12.28041016 4.6328125 10.58984375 C4.75398437 9.73519531 4.87515625 8.88054687 5 8 C4.34 8 3.68 8 3 8 C0.95830515 5.09451118 0 3.59857954 0 0 Z " fill="#EC8068" transform="translate(225,164)"/>
<path d="M0 0 C3.68754757 0.49831724 5.60490662 1.10067643 8 4 C3.25 2.125 3.25 2.125 1 1 C1.33 10.24 1.66 19.48 2 29 C4.475 29.99 4.475 29.99 7 31 C7 31.66 7 32.32 7 33 C14.46129453 34.81272232 23.28241278 36.92896899 30.63671875 33.921875 C33 33 33 33 36 34 C27.74470105 38.03663775 18.62725731 38.5567622 9.73828125 36.09765625 C7.41681689 35.16708352 5.20093944 34.18512124 3 33 C3 32.34 3 31.68 3 31 C2.01 30.67 1.02 30.34 0 30 C-1.3463268 27.30734639 -1.12962636 25.19885751 -1.1328125 22.1875 C-1.13410156 21.02992188 -1.13539063 19.87234375 -1.13671875 18.6796875 C-1.13285156 17.46539062 -1.12898437 16.25109375 -1.125 15 C-1.12886719 13.78570312 -1.13273438 12.57140625 -1.13671875 11.3203125 C-1.13542969 10.16273438 -1.13414062 9.00515625 -1.1328125 7.8125 C-1.13168457 6.74644531 -1.13055664 5.68039063 -1.12939453 4.58203125 C-1 2 -1 2 0 0 Z " fill="#B5D1D1" transform="translate(229,210)"/>
<path d="M0 0 C0.33 0.66 0.66 1.32 1 2 C-0.26780487 4.72343268 -1.59239017 7.35092445 -3 10 C-3.75405952 11.49796336 -4.50427958 12.99786783 -5.25 14.5 C-5.8275 15.655 -6.405 16.81 -7 18 C-7.66 18 -8.32 18 -9 18 C-9.02578125 18.59167969 -9.0515625 19.18335938 -9.078125 19.79296875 C-9.45704414 25.0720013 -10.10636661 28.10636661 -14 32 C-16.375 31.75 -16.375 31.75 -19 31 C-20.375 29.1875 -20.375 29.1875 -21 27 C-20.625 24.75 -20.625 24.75 -20 23 C-19.34 24.98 -18.68 26.96 -18 29 C-17.34 29 -16.68 29 -16 29 C-15.76023438 28.175 -15.52046875 27.35 -15.2734375 26.5 C-13.77743734 22.38829403 -11.80105583 18.78320817 -9.625 15 C-9.23828125 14.31421875 -8.8515625 13.6284375 -8.453125 12.921875 C-2.56070243 2.56070243 -2.56070243 2.56070243 0 0 Z " fill="#E9A08E" transform="translate(267,173)"/>
<path d="M0 0 C5.72988744 -0.16508679 8.9555141 0.52923139 14 3 C10 4 10 4 2 2 C2 8.6 2 15.2 2 22 C4.31 22 6.62 22 9 22 C9.66 22.66 10.32 23.32 11 24 C13.18677942 24.92755425 15.3990875 25.79573848 17.625 26.625 C18.81351563 27.07101563 20.00203125 27.51703125 21.2265625 27.9765625 C22.14179688 28.31429687 23.05703125 28.65203125 24 29 C19.92030536 30.35989821 17.0545801 29.03153873 13.125 27.75 C12.41730469 27.53214844 11.70960938 27.31429687 10.98046875 27.08984375 C8.96318658 26.44746898 6.98543634 25.7339688 5 25 C4.01386719 24.67902344 3.02773437 24.35804688 2.01171875 24.02734375 C-0.51838722 21.47758647 -0.35323588 20.42228465 -0.48828125 16.89453125 C-0.4550367 14.86661342 -0.39539629 12.83899553 -0.3125 10.8125 C-0.28994141 9.77673828 -0.26738281 8.74097656 -0.24414062 7.67382812 C-0.18516846 5.11443596 -0.10292567 2.55794049 0 0 Z " fill="#EDB8AB" transform="translate(150,117)"/>
<path d="M0 0 C0.66 0.33 1.32 0.66 2 1 C-2.66103563 7.42901467 -9.11191864 12.59839058 -16.25 16.10546875 C-18.18579055 16.92197673 -18.18579055 16.92197673 -19.4375 19.0625 C-21.43958017 21.54507941 -22.90228009 21.66511136 -26 22 C-24.62814456 16.43067643 -20.80299777 14.16629967 -16.375 11 C-15.68792969 10.49210938 -15.00085938 9.98421875 -14.29296875 9.4609375 C-10.79302154 6.90000052 -7.23059581 4.43703242 -3.6015625 2.0625 C-2.95783691 1.64097656 -2.31411133 1.21945313 -1.65087891 0.78515625 C-1.10608887 0.52605469 -0.56129883 0.26695312 0 0 Z " fill="#EDAA9D" transform="translate(314,130)"/>
<path d="M0 0 C1.95873519 2.93810278 2.27509127 3.73370112 2.52734375 7.04296875 C2.59566406 7.85838135 2.66398437 8.67379395 2.734375 9.51391602 C2.83492188 10.83734009 2.83492188 10.83734009 2.9375 12.1875 C3.65256475 20.49792981 4.49606202 28.7817469 5.5 37.0625 C5.67776978 38.60490356 5.67776978 38.60490356 5.85913086 40.1784668 C5.97780518 41.14179932 6.09647949 42.10513184 6.21875 43.09765625 C6.32123047 43.94851807 6.42371094 44.79937988 6.52929688 45.67602539 C6.88540219 48.00584573 6.88540219 48.00584573 8.02294922 49.9128418 C9.35126408 52.75036397 9.32564311 55.17272317 9.4140625 58.296875 C9.45273438 59.50214844 9.49140625 60.70742188 9.53125 61.94921875 C9.5621875 63.20347656 9.593125 64.45773437 9.625 65.75 C9.66367188 67.01972656 9.70234375 68.28945313 9.7421875 69.59765625 C9.83644222 72.7316257 9.92205166 75.86558949 10 79 C8.27409868 75.95475868 7.64420072 73.44824586 7.2890625 69.9765625 C7.12639893 68.46751343 7.12639893 68.46751343 6.96044922 66.92797852 C6.84975098 65.83799561 6.73905273 64.7480127 6.625 63.625 C5.54654677 53.57577672 4.27422415 43.57184551 2.875 33.5625 C1.33068589 22.37231678 0.28442753 11.29177291 0 0 Z " fill="#94BABC" transform="translate(106,254)"/>
<path d="M0 0 C-8.85917569 6.09068329 -15.47285628 9.93800177 -26.45703125 8.55859375 C-30.58740177 7.65130806 -34.2612407 5.94162621 -38 4 C-34.68053929 2.8935131 -33.62284776 3.14239292 -30.3125 3.9375 C-24.20339881 5.2485042 -18.6538458 6.23076903 -13 3 C-11.68 3 -10.36 3 -9 3 C-9 2.34 -9 1.68 -9 1 C-2.25 -1.125 -2.25 -1.125 0 0 Z " fill="#ECA796" transform="translate(272,204)"/>
<path d="M0 0 C1.32 0 2.64 0 4 0 C4 0.66 4 1.32 4 2 C4.598125 2.0825 5.19625 2.165 5.8125 2.25 C8.5966296 3.20455872 9.43311142 4.57132271 11 7 C10.3125 8.9375 10.3125 8.9375 9 11 C6.8125 12 6.8125 12 4 12 C1.4731569 10.87288119 -0.66262138 9.51242146 -3 8 C-2.2265625 7.38125 -2.2265625 7.38125 -1.4375 6.75 C-0.7259375 5.88375 -0.7259375 5.88375 0 5 C-0.3185177 2.89179203 -0.3185177 2.89179203 -1 1 C-0.67 0.67 -0.34 0.34 0 0 Z " fill="#F47761" transform="translate(216,183)"/>
<path d="M0 0 C1.70345745 3.40691491 1.22662366 7.18267517 1.25 10.9375 C1.270625 11.76185547 1.29125 12.58621094 1.3125 13.43554688 C1.31765625 14.22896484 1.3228125 15.02238281 1.328125 15.83984375 C1.34214355 16.92833618 1.34214355 16.92833618 1.35644531 18.03881836 C0.89748288 20.5640548 -0.01482417 21.42371292 -2 23 C-7.52627018 24.80666525 -13.22419207 25.25112208 -19 25 C-18.01 24.67 -17.02 24.34 -16 24 C-16 23.34 -16 22.68 -16 22 C-11.05 21.67 -6.1 21.34 -1 21 C-1 14.73 -1 8.46 -1 2 C-9.415 2.495 -9.415 2.495 -18 3 C-18 2.67 -18 2.34 -18 2 C-11.93184478 0.77100654 -6.20104812 -0.27560214 0 0 Z " fill="#F0C3B7" transform="translate(375,140)"/>
<path d="M0 0 C1.05960937 0.00676758 1.05960937 0.00676758 2.140625 0.01367188 C3.88545275 0.02546125 5.630237 0.04339676 7.375 0.0625 C3.70291766 2.21477448 -0.19977575 2.94172928 -4.3125 3.8125 C-11.50151964 5.39533868 -18.31667671 7.55898536 -25.1784668 10.21972656 C-30.32032371 12.16405876 -30.32032371 12.16405876 -33.625 11.0625 C-32.625 9.5625 -32.625 9.5625 -30.625 8.0625 C-27.90653765 7.78904521 -25.36822801 7.92758715 -22.625 8.0625 C-22.955 7.0725 -23.285 6.0825 -23.625 5.0625 C-20.16 4.5675 -20.16 4.5675 -16.625 4.0625 C-16.625 3.7325 -16.625 3.4025 -16.625 3.0625 C-14.315 3.0625 -12.005 3.0625 -9.625 3.0625 C-9.625 2.4025 -9.625 1.7425 -9.625 1.0625 C-6.55966836 -0.47016582 -3.35745728 -0.04026471 0 0 Z " fill="#7AA7A7" transform="translate(355.625,337.9375)"/>
<path d="M0 0 C1.5625 1.6875 1.5625 1.6875 3 4 C2.58974359 8.41025641 2.58974359 8.41025641 1 10 C1.99 10.66 2.98 11.32 4 12 C-2.625 12.125 -2.625 12.125 -6 11 C-6.33 9.35 -6.66 7.7 -7 6 C-7.66 6 -8.32 6 -9 6 C-9 4 -9 4 -7.3125 2.25 C-5 1 -5 1 -2.25 1.8125 C-1.13625 2.4003125 -1.13625 2.4003125 0 3 C0 2.01 0 1.02 0 0 Z " fill="#F17965" transform="translate(240,196)"/>
<path d="M0 0 C3.65093978 3.65093978 8 8.57510025 8 14 C7.34 14 6.68 14 6 14 C6 13.34 6 12.68 6 12 C4.68 11.67 3.36 11.34 2 11 C1.67 9.35 1.34 7.7 1 6 C-1.475 7.485 -1.475 7.485 -4 9 C-4.33 7.02 -4.66 5.04 -5 3 C-5.99 2.67 -6.98 2.34 -8 2 C-8 1.34 -8 0.68 -8 0 C-4.95588012 -1.52205994 -3.23094106 -0.95027678 0 0 Z " fill="#F07C63" transform="translate(238,182)"/>
<path d="M0 0 C0 0.33 0 0.66 0 1 C-0.825 1.268125 -1.65 1.53625 -2.5 1.8125 C-4.94742661 2.64287689 -7.34229736 3.50769614 -9.75 4.4375 C-13.52070419 5.86309705 -17.33276006 7.04412055 -21.203125 8.16796875 C-23.28493008 8.78727669 -25.35646533 9.44131578 -27.421875 10.11328125 C-28.58203125 10.48839844 -29.7421875 10.86351562 -30.9375 11.25 C-32.55978516 11.78367188 -32.55978516 11.78367188 -34.21484375 12.328125 C-37 13 -37 13 -40 12 C-29.81464446 7.74146773 -19.57088417 4.17379417 -9 1 C-5.8035914 -0.06546953 -3.34252724 -0.07427838 0 0 Z " fill="#F0B7AB" transform="translate(357,143)"/>
<path d="M0 0 C3.15607625 2.893775 3.60020703 4.68223595 4 9 C4.0198231 11.31930317 4.00156951 13.63070326 3.9375 15.94921875 C3.90791906 18.20239415 3.90791906 18.20239415 5 21 C5.08106686 22.55421729 5.10756898 24.11167027 5.09765625 25.66796875 C5.09282227 27.00698242 5.09282227 27.00698242 5.08789062 28.37304688 C5.07951172 29.30181641 5.07113281 30.23058594 5.0625 31.1875 C5.05798828 32.12787109 5.05347656 33.06824219 5.04882812 34.03710938 C5.03704626 36.35813712 5.02059558 38.67903644 5 41 C4.67 41 4.34 41 4 41 C3.81824219 39.27716797 3.81824219 39.27716797 3.6328125 37.51953125 C2.85930452 30.31672457 2.07336829 23.14741086 0.875 16 C0.00021563 10.62144296 -0.22102872 5.43976239 0 0 Z " fill="#96BCBE" transform="translate(96,177)"/>
<path d="M0 0 C-1.11117188 0.64066406 -2.22234375 1.28132812 -3.3671875 1.94140625 C-10.86855994 6.29464791 -18.2469636 10.63324563 -25.21484375 15.8203125 C-27 17 -27 17 -29 17 C-29.33 15.68 -29.66 14.36 -30 13 C-26.535 12.505 -26.535 12.505 -23 12 C-23 11.01 -23 10.02 -23 9 C-21.906875 8.690625 -20.81375 8.38125 -19.6875 8.0625 C-17.44592006 7.41662103 -15.2130649 6.7376883 -13 6 C-12.86335938 5.35675781 -12.72671875 4.71351563 -12.5859375 4.05078125 C-12.39257812 3.37402344 -12.19921875 2.69726562 -12 2 C-10.0390625 0.91796875 -10.0390625 0.91796875 -7.625 0.1875 C-6.83351563 -0.06644531 -6.04203125 -0.32039062 -5.2265625 -0.58203125 C-3 -1 -3 -1 0 0 Z " fill="#F0B8AB" transform="translate(301,186)"/>
<path d="M0 0 C1.216875 -0.04125 2.43375 -0.0825 3.6875 -0.125 C4.71423828 -0.15980469 4.71423828 -0.15980469 5.76171875 -0.1953125 C8 0 8 0 10.1328125 0.890625 C15.18461435 2.84527313 20.62597707 3.45981306 25.95898438 4.32421875 C26.83232422 4.48277344 27.70566406 4.64132813 28.60546875 4.8046875 C29.79885864 5.00553955 29.79885864 5.00553955 31.01635742 5.21044922 C33 6 33 6 34.2746582 8.07470703 C34.63370239 9.02772705 34.63370239 9.02772705 35 10 C30.62774191 9.4856167 27.06052856 8.62421142 23 7 C21.0077043 6.47013412 19.00701916 5.97103511 17 5.5 C13.16217837 4.59928676 9.64915641 3.47922253 6 2 C4.0075675 1.62406934 2.0081326 1.28020455 0 1 C0 0.67 0 0.34 0 0 Z " fill="#ECA294" transform="translate(134,162)"/>
<path d="M0 0 C0.66 0.33 1.32 0.66 2 1 C1.47792969 1.40089844 0.95585937 1.80179688 0.41796875 2.21484375 C-4.01143746 5.63580371 -8.40107336 9.1021924 -12.75 12.625 C-13.63171875 13.33914062 -14.5134375 14.05328125 -15.421875 14.7890625 C-18.08638869 17.07408485 -20.53126428 19.506618 -23 22 C-24.64864545 23.35555293 -26.31003995 24.69631653 -28 26 C-26.58725244 21.76175733 -24.54485447 18.9930653 -21.5625 15.6875 C-20.78003906 14.80449219 -19.99757813 13.92148438 -19.19140625 13.01171875 C-17 11 -17 11 -14 11 C-12.35113807 9.86158866 -12.35113807 9.86158866 -10.75 8.3125 C-7.33338974 5.24556414 -3.77110391 2.61668435 0 0 Z " fill="#FAD4C3" transform="translate(294,168)"/>
<path d="M0 0 C1.65 0 3.3 0 5 0 C5.226875 0.61875 5.45375 1.2375 5.6875 1.875 C6.80796957 4.19619088 6.80796957 4.19619088 9.1953125 4.734375 C13.10144399 6.49703043 15.36850035 9.21103005 18.1875 12.375 C18.72052734 12.9525 19.25355469 13.53 19.80273438 14.125 C22.33784345 16.91840321 24.575591 19.45208556 26 23 C21.76397085 19.42290872 17.63894 15.75850039 13.5625 12 C9.65410597 8.42090437 5.68873474 5.11848369 1.36328125 2.05859375 C0.91339844 1.70925781 0.46351563 1.35992187 0 1 C0 0.67 0 0.34 0 0 Z " fill="#F2BAAE" transform="translate(201,161)"/>
<path d="M0 0 C2.31 0.66 4.62 1.32 7 2 C7 2.66 7 3.32 7 4 C7.66 4 8.32 4 9 4 C9 6.97 9 9.94 9 13 C6.525 12.01 6.525 12.01 4 11 C4 10.01 4 9.02 4 8 C3.01 7.67 2.02 7.34 1 7 C0.67 4.69 0.34 2.38 0 0 Z " fill="#F37A61" transform="translate(221,168)"/>
<path d="M0 0 C1.14275391 0.13148438 1.14275391 0.13148438 2.30859375 0.265625 C4.65688552 0.77028389 6.4704315 1.58721022 8.5625 2.75 C7.5725 3.74 6.5825 4.73 5.5625 5.75 C6.5525 6.41 7.5425 7.07 8.5625 7.75 C8.8925 8.74 9.2225 9.73 9.5625 10.75 C5.51948825 9.26481201 1.95103744 7.32122002 -1.75 5.125 C-3.35294922 4.17753906 -3.35294922 4.17753906 -4.98828125 3.2109375 C-5.79652344 2.72882813 -6.60476562 2.24671875 -7.4375 1.75 C-4.16689407 -0.43040395 -3.67375511 -0.47083539 0 0 Z " fill="#EE9782" transform="translate(208.4375,185.25)"/>
<path d="M0 0 C1.11375 0.556875 1.11375 0.556875 2.25 1.125 C-0.64430142 2.68858812 -3.37581198 3.63960423 -6.5625 4.4375 C-12.05395363 5.86779764 -17.37976916 7.65056814 -22.71020508 9.5871582 C-27.42318714 11.23393762 -27.42318714 11.23393762 -30.75 10.125 C-30.09 10.125 -29.43 10.125 -28.75 10.125 C-28.75 9.465 -28.75 8.805 -28.75 8.125 C-26.85454608 7.64433465 -24.95861961 7.16553257 -23.0625 6.6875 C-22.00675781 6.42066406 -20.95101563 6.15382812 -19.86328125 5.87890625 C-17.1671683 5.22602068 -14.4742424 4.64558807 -11.75 4.125 C-11.75 3.465 -11.75 2.805 -11.75 2.125 C-10.63625 1.939375 -10.63625 1.939375 -9.5 1.75 C-6.77612783 1.27904999 -6.77612783 1.27904999 -4.75 -0.0625 C-2.75 -0.875 -2.75 -0.875 0 0 Z " fill="#EEA99A" transform="translate(353.75,163.875)"/>
<path d="M0 0 C0 6.27 0 12.54 0 19 C-3.21451269 20.60725635 -6.43612536 20.05748185 -10 20 C-6.83210307 18.24005726 -4.75635569 17.75127114 -1 17 C-1 11.72 -1 6.44 -1 1 C-2.423125 1.33 -3.84625 1.66 -5.3125 2 C-10.91410535 3.1379513 -16.30526911 3.19487672 -22 3 C-22 2.67 -22 2.34 -22 2 C-14.55441213 0.56717209 -7.58447674 -0.22307285 0 0 Z " fill="#E58471" transform="translate(374,142)"/>
<path d="M0 0 C0.66 0.33 1.32 0.66 2 1 C1.01 1.66 0.02 2.32 -1 3 C-1 3.99 -1 4.98 -1 6 C-3.06049855 6.81756238 -5.12348853 7.62884734 -7.1875 8.4375 C-8.33605469 8.88996094 -9.48460937 9.34242188 -10.66796875 9.80859375 C-13.47123233 10.81093301 -16.07112576 11.52012795 -19 12 C-15.96650331 8.68873735 -12.82942784 6.53576981 -8.9375 4.3125 C-7.89464844 3.71050781 -6.85179687 3.10851562 -5.77734375 2.48828125 C-3 1 -3 1 0 0 Z " fill="#EEA89B" transform="translate(315,156)"/>
<path d="M0 0 C0.33 0 0.66 0 1 0 C4.75556116 11.99889981 5.18152883 23.49468037 5 36 C4.67 36 4.34 36 4 36 C2.69197813 28.90328561 1.68324687 21.79360698 0.875 14.625 C0.78750488 13.86461426 0.70000977 13.10422852 0.60986328 12.32080078 C0.15826777 8.19101887 -0.0924915 4.16211736 0 0 Z " fill="#A7CACB" transform="translate(101,218)"/>
<path d="M0 0 C0.99 0.33 1.98 0.66 3 1 C3.16866551 7.85203638 2.5453314 14.29609808 1.5 21.0625 C1.35691406 22.02349609 1.21382813 22.98449219 1.06640625 23.97460938 C0.71674414 26.3173455 0.3611856 28.65901777 0 31 C-0.33 31 -0.66 31 -1 31 C-0.67 20.77 -0.34 10.54 0 0 Z " fill="#7EABAC" transform="translate(387,289)"/>
<path d="M0 0 C5.34492917 0.55119582 9.32071717 2.42101521 14 4.875 C14.68578125 5.22691406 15.3715625 5.57882813 16.078125 5.94140625 C17.4229493 6.63178361 18.76548458 7.32664172 20.10546875 8.02636719 C21.86503711 8.9306402 23.65051881 9.78399643 25.4375 10.6328125 C28 12 28 12 29 14 C23.55432314 12.97137215 18.88182883 11.75385216 14 9 C14 8.01 14 7.02 14 6 C12.86111328 5.72736328 12.86111328 5.72736328 11.69921875 5.44921875 C10.70535156 5.19785156 9.71148437 4.94648438 8.6875 4.6875 C7.70136719 4.44386719 6.71523437 4.20023438 5.69921875 3.94921875 C2.99858988 2.99950411 1.79043784 2.18152323 0 0 Z " fill="#F2B6A9" transform="translate(168,150)"/>
<path d="M0 0 C3.92234364 0.54730376 7.45779454 1.17829434 11 3 C11.33 3.99 11.66 4.98 12 6 C9 6 9 6 6 5 C5.01 6.485 5.01 6.485 4 8 C3.01 8 2.02 8 1 8 C0.67 9.32 0.34 10.64 0 12 C0 8.04 0 4.08 0 0 Z " fill="#F27A5F" transform="translate(153,120)"/>
<path d="M0 0 C0.33 0 0.66 0 1 0 C0.47724291 7.66251845 -0.2025126 15.29922786 -1 22.9375 C-1.1244751 24.14369995 -1.1244751 24.14369995 -1.25146484 25.37426758 C-1.70149723 29.61244093 -2.24539787 33.80252568 -3 38 C-3.33 38 -3.66 38 -4 38 C-4.08847317 34.54183314 -4.14087725 31.08396421 -4.1875 27.625 C-4.21263672 26.65949219 -4.23777344 25.69398438 -4.26367188 24.69921875 C-4.32359214 18.74713906 -3.65629906 13.76992677 -1.71679688 8.1328125 C-0.81889994 5.46114095 -0.36708292 2.78983019 0 0 Z " fill="#8BB3B3" transform="translate(394,250)"/>
<path d="M0 0 C6.35714286 0.48901099 6.35714286 0.48901099 9.4375 2.9375 C11 5 11 5 11 7 C11.928125 6.938125 12.85625 6.87625 13.8125 6.8125 C17 7 17 7 18.875 8.375 C20 10 20 10 20 12 C14.99886406 10.51991304 10.67084403 8.3681664 6.125 5.875 C5.43664062 5.50246094 4.74828125 5.12992188 4.0390625 4.74609375 C2.35705202 3.83500474 0.67819564 2.91809685 -1 2 C-0.67 1.34 -0.34 0.68 0 0 Z " fill="#EC9A8C" transform="translate(176,146)"/>
<path d="M0 0 C2.10409639 -0.02701408 4.20829178 -0.04640223 6.3125 -0.0625 C7.48425781 -0.07410156 8.65601563 -0.08570313 9.86328125 -0.09765625 C13 0 13 0 16 1 C16 1.66 16 2.32 16 3 C17.051875 3.185625 17.051875 3.185625 18.125 3.375 C21.17656387 4.03838345 24.05340938 4.97211955 27 6 C23.81624302 7.02985344 21.80888608 6.94055002 18.59375 6.07421875 C17.35431641 5.74454102 17.35431641 5.74454102 16.08984375 5.40820312 C15.23519531 5.17037109 14.38054687 4.93253906 13.5 4.6875 C12.64535156 4.46126953 11.79070312 4.23503906 10.91015625 4.00195312 C7.04530912 2.95585176 3.54793932 1.88697735 0 0 Z " fill="#7EAAA9" transform="translate(130,336)"/>
<path d="M0 0 C2.475 0.495 2.475 0.495 5 1 C5.33 1.66 5.66 2.32 6 3 C4.68 3 3.36 3 2 3 C1.67 15.21 1.34 27.42 1 40 C0.67 40 0.34 40 0 40 C0 26.8 0 13.6 0 0 Z " fill="#2A6D6C" transform="translate(230,250)"/>
<path d="M0 0 C3.84411747 1.56612193 6.15950209 4.02094121 9 7 C9.928125 7.928125 10.85625 8.85625 11.8125 9.8125 C12.534375 10.534375 13.25625 11.25625 14 12 C13.67 12.66 13.34 13.32 13 14 C12.62875 13.54625 12.2575 13.0925 11.875 12.625 C9.45735315 10.52970606 7.04569398 9.87986715 4 9 C4 8.01 4 7.02 4 6 C3.01 5.67 2.02 5.34 1 5 C0.67 3.35 0.34 1.7 0 0 Z " fill="#EEA598" transform="translate(211,150)"/>
<path d="M0 0 C1.71316406 0.48726562 1.71316406 0.48726562 3.4609375 0.984375 C7.89993638 2.09070409 12.06756473 2.29918096 16.625 2.25 C17.34945312 2.25773438 18.07390625 2.26546875 18.8203125 2.2734375 C23.25941067 2.25735381 26.81818015 1.66217445 31 0 C29 3 29 3 26 4 C23.93637009 4.15029988 21.86876085 4.24844448 19.80078125 4.31640625 C17.98803711 4.37924805 17.98803711 4.37924805 16.13867188 4.44335938 C14.87603516 4.48267578 13.61339844 4.52199219 12.3125 4.5625 C10.40114258 4.62727539 10.40114258 4.62727539 8.45117188 4.69335938 C5.30089148 4.7995486 2.15053161 4.90159533 -1 5 C-1 4.34 -1 3.68 -1 3 C-0.34 2.67 0.32 2.34 1 2 C0.67 1.34 0.34 0.68 0 0 Z " fill="#B6D7DA" transform="translate(234,250)"/>
<path d="M0 0 C5.79859195 0.56810529 10.97686594 1.73679735 16.5 3.5625 C17.22703125 3.79646484 17.9540625 4.03042969 18.703125 4.27148438 C20.47080261 4.84132781 22.23570969 5.41975404 24 6 C20.92186992 6.96998805 18.87526453 6.98169275 15.7421875 6.2578125 C14.95199219 6.07863281 14.16179687 5.89945313 13.34765625 5.71484375 C12.53167969 5.52019531 11.71570313 5.32554687 10.875 5.125 C10.05128906 4.93808594 9.22757813 4.75117188 8.37890625 4.55859375 C2.32142857 3.16071429 2.32142857 3.16071429 0 2 C0 1.34 0 0.68 0 0 Z " fill="#F0BCAF" transform="translate(144,143)"/>
<path d="M0 0 C3.875 1.75 3.875 1.75 5 4 C5.99 4 6.98 4 8 4 C9.82421875 5.8984375 9.82421875 5.8984375 11.6875 8.375 C12.31011719 9.18710938 12.93273437 9.99921875 13.57421875 10.8359375 C15 13 15 13 15 15 C12.20203231 13.93870191 11.17084383 13.32460328 9.75 10.625 C7.27467391 6.91201086 4.02327617 5.71060911 0 4 C0 2.68 0 1.36 0 0 Z " fill="#F8C1B3" transform="translate(221,181)"/>
<path d="M0 0 C0.33 0.33 0.66 0.66 1 1 C0.90968426 3.35694954 0.75311872 5.71153582 0.5625 8.0625 C0.46066406 9.35285156 0.35882813 10.64320313 0.25390625 11.97265625 C0.17011719 12.97167969 0.08632813 13.97070312 0 15 C-0.33 15 -0.66 15 -1 15 C-1 10.71 -1 6.42 -1 2 C-7.6 2 -14.2 2 -21 2 C-21 1.67 -21 1.34 -21 1 C-18.43761495 0.83138242 -15.87511576 0.66504227 -13.3125 0.5 C-12.59126953 0.45230469 -11.87003906 0.40460938 -11.12695312 0.35546875 C-3.24035829 -0.14869713 -3.24035829 -0.14869713 0 0 Z " fill="#9FBFC0" transform="translate(405,163)"/>
<path d="M0 0 C-1.299375 0.61875 -1.299375 0.61875 -2.625 1.25 C-6.00171249 2.88355072 -6.00171249 2.88355072 -8.75 5.0625 C-13.00942621 7.60177332 -17.14295567 8.27048346 -22 9 C-20.36622293 5.73244586 -16.88749325 4.88932107 -13.6875 3.4375 C-13.01009766 3.12103516 -12.33269531 2.80457031 -11.63476562 2.47851562 C-2.99689885 -1.49844943 -2.99689885 -1.49844943 0 0 Z " fill="#F1C0B0" transform="translate(338,121)"/>
<path d="M0 0 C-0.99 0.33 -1.98 0.66 -3 1 C-3 1.66 -3 2.32 -3 3 C-4.04800781 3.09087891 -4.04800781 3.09087891 -5.1171875 3.18359375 C-6.02726562 3.26738281 -6.93734375 3.35117188 -7.875 3.4375 C-8.77992188 3.51871094 -9.68484375 3.59992188 -10.6171875 3.68359375 C-13.01110861 3.86989285 -13.01110861 3.86989285 -15 5 C-16.70702735 5.06996014 -18.41668003 5.08440154 -20.125 5.0625 C-21.03507812 5.05347656 -21.94515625 5.04445312 -22.8828125 5.03515625 C-23.58148438 5.02355469 -24.28015625 5.01195312 -25 5 C-25 4.67 -25 4.34 -25 4 C-22.33580182 3.32184046 -19.66934242 2.65734223 -17 2 C-16.25621094 1.80921875 -15.51242187 1.6184375 -14.74609375 1.421875 C-9.69696542 0.19252201 -5.19599358 -0.18894522 0 0 Z " fill="#87B0B4" transform="translate(373,167)"/>
<path d="M0 0 C2.31 0 4.62 0 7 0 C3.30598193 2.46267871 -0.55941834 4.28395992 -4.5625 6.1875 C-5.34302734 6.56841797 -6.12355469 6.94933594 -6.92773438 7.34179688 C-7.67474609 7.69693359 -8.42175781 8.05207031 -9.19140625 8.41796875 C-10.21536499 8.90946411 -10.21536499 8.90946411 -11.26000977 9.41088867 C-11.83420654 9.60529541 -12.40840332 9.79970215 -13 10 C-13.66 9.67 -14.32 9.34 -15 9 C-8.25 5 -8.25 5 -6 5 C-6 4.01 -6 3.02 -6 2 C-4.02 2 -2.04 2 0 2 C0 1.34 0 0.68 0 0 Z " fill="#F1B8AA" transform="translate(316,175)"/>
<path d="M0 0 C-0.56692701 3.28817667 -1.4559154 4.84731303 -4 7 C-4.99 7.66 -5.98 8.32 -7 9 C-7.66 8.67 -8.32 8.34 -9 8 C-9 7.34 -9 6.68 -9 6 C-9.66 5.67 -10.32 5.34 -11 5 C-9.54462432 4.16151196 -8.08559627 3.32936066 -6.625 2.5 C-5.81289063 2.0359375 -5.00078125 1.571875 -4.1640625 1.09375 C-2 0 -2 0 0 0 Z " fill="#5E9395" transform="translate(300,191)"/>
<path d="M0 0 C0.33 0 0.66 0 1 0 C1.01417969 0.95261719 1.02835938 1.90523438 1.04296875 2.88671875 C0.93132209 10.71063167 0.93132209 10.71063167 4.3125 17.375 C7.04705697 19.34494623 7.04705697 19.34494623 11 19 C12.75 21 12.75 21 14 23 C8.7970447 22.86992612 5.34145004 20.92502617 1.5703125 17.51953125 C-1.63856958 12.37095179 -0.54024504 5.83014443 0 0 Z " fill="#578D8D" transform="translate(230,360)"/>
<path d="M0 0 C2.97 0.495 2.97 0.495 6 1 C6.33 1.99 6.66 2.98 7 4 C7.66 4.33 8.32 4.66 9 5 C9 5.99 9 6.98 9 8 C10.32 8.33 11.64 8.66 13 9 C13 10.65 13 12.3 13 14 C11.88085919 12.88085919 10.76206063 11.76137493 9.64453125 10.640625 C8.39693967 9.39599682 7.14323731 8.15749029 5.88671875 6.921875 C5.16097656 6.20515625 4.43523437 5.4884375 3.6875 4.75 C2.99011719 4.06421875 2.29273438 3.3784375 1.57421875 2.671875 C0 1 0 1 0 0 Z " fill="#E68372" transform="translate(216,171)"/>
<path d="M0 0 C-3.68806476 2.45870984 -7.27805286 3.45051883 -11.5 4.6875 C-12.65822266 5.04424805 -12.65822266 5.04424805 -13.83984375 5.40820312 C-14.58363281 5.62798828 -15.32742188 5.84777344 -16.09375 6.07421875 C-16.77115234 6.27619873 -17.44855469 6.47817871 -18.14648438 6.6862793 C-20 7 -20 7 -23 6 C-15.90306242 1.26870828 -8.49389299 -0.18398324 0 0 Z " fill="#F2C2B2" transform="translate(349,140)"/>
<path d="M0 0 C0.66 0 1.32 0 2 0 C2 0.99 2 1.98 2 3 C1.01 3 0.02 3 -1 3 C-1 12.57 -1 22.14 -1 32 C-1.33 32 -1.66 32 -2 32 C-2.04938628 27.76417673 -2.08571263 23.52850535 -2.10986328 19.29248047 C-2.11992963 17.85104453 -2.1335838 16.40962905 -2.15087891 14.96826172 C-2.17510012 12.89806066 -2.18647641 10.82812924 -2.1953125 8.7578125 C-2.20578613 7.5114502 -2.21625977 6.26508789 -2.22705078 4.98095703 C-2 2 -2 2 0 0 Z " fill="#7DACAD" transform="translate(278,203)"/>
<path d="M0 0 C2.5625718 -0.02710123 5.12485365 -0.04688771 7.6875 -0.0625 C8.40873047 -0.07087891 9.12996094 -0.07925781 9.87304688 -0.08789062 C13.71555382 -0.10543632 17.26639526 0.06475779 21 1 C21 1.33 21 1.66 21 2 C18.25034772 2.19511725 15.50057868 2.38136433 12.75 2.5625 C11.58404297 2.64661133 11.58404297 2.64661133 10.39453125 2.73242188 C9.64042969 2.78076172 8.88632813 2.82910156 8.109375 2.87890625 C7.41811523 2.9260376 6.72685547 2.97316895 6.01464844 3.02172852 C3.86382928 2.99853136 2.05915129 2.5995764 0 2 C0 1.34 0 0.68 0 0 Z " fill="#639698" transform="translate(106,165)"/>
<path d="M0 0 C-0.625 1.9375 -0.625 1.9375 -2 4 C-5.73621526 5.05588692 -8.31791183 5.0440553 -12 4 C-10.56988027 3.13353333 -9.13059381 2.28218171 -7.6875 1.4375 C-6.48673828 0.72400391 -6.48673828 0.72400391 -5.26171875 -0.00390625 C-3 -1 -3 -1 0 0 Z " fill="#75A5A5" transform="translate(312,186)"/>
<path d="M0 0 C5.21444755 2.76684972 9.78371969 5.83498145 14 10 C14 10.33 14 10.66 14 11 C12.35 11 10.7 11 9 11 C9 10.34 9 9.68 9 9 C8.34 9 7.68 9 7 9 C6.67 8.01 6.34 7.02 6 6 C4.00628175 4.65729179 2.0065438 3.32346506 0 2 C0 1.34 0 0.68 0 0 Z " fill="#F0B8AC" transform="translate(207,170)"/>
<path d="M0 0 C7.52592433 0.6377902 14.67098882 2.19889833 22 4 C22 4.33 22 4.66 22 5 C18.37 5 14.74 5 11 5 C11 4.34 11 3.68 11 3 C10.28972656 2.95101562 9.57945312 2.90203125 8.84765625 2.8515625 C7.92855469 2.77679688 7.00945312 2.70203125 6.0625 2.625 C5.14597656 2.55539063 4.22945312 2.48578125 3.28515625 2.4140625 C2.15400391 2.20910156 2.15400391 2.20910156 1 2 C0.67 1.34 0.34 0.68 0 0 Z " fill="#8DB6B8" transform="translate(130,167)"/>
<path d="M0 0 C-0.804375 0.61875 -1.60875 1.2375 -2.4375 1.875 C-5.03874519 3.74164041 -5.03874519 3.74164041 -6 6 C-8.97 5.505 -8.97 5.505 -12 5 C-5.64705882 -1.88235294 -5.64705882 -1.88235294 0 0 Z " fill="#E88372" transform="translate(325,129)"/>
<path d="M0 0 C0.99 0.33 1.98 0.66 3 1 C0.38964276 4.37810937 -2.92737222 5.36615632 -7 6 C-10.67387172 6.15328402 -14.32557532 6.11960153 -18 6 C-18 5.67 -18 5.34 -18 5 C-11.07 4.01 -11.07 4.01 -4 3 C-4 2.34 -4 1.68 -4 1 C-2.68 1.33 -1.36 1.66 0 2 C0 1.34 0 0.68 0 0 Z " fill="#93BABB" transform="translate(262,378)"/>
<path d="M0 0 C1.670625 0.2475 1.670625 0.2475 3.375 0.5 C10.66327926 1.40297265 17.77105143 1.25720845 25 0 C21.12584676 3.87415324 16.15411185 3.21243664 10.9375 3.25 C10.21755859 3.270625 9.49761719 3.29125 8.75585938 3.3125 C3.4633414 3.35181304 3.4633414 3.35181304 1.00390625 1.484375 C0.67261719 0.99453125 0.34132812 0.5046875 0 0 Z " fill="#9FC3CA" transform="translate(237,214)"/>
<path d="M0 0 C1.32 0 2.64 0 4 0 C4 2.31 4 4.62 4 7 C5.32 7.33 6.64 7.66 8 8 C8 9.65 8 11.3 8 13 C4.72653393 9.90347804 2.02490044 7.04980088 0 3 C0 2.01 0 1.02 0 0 Z " fill="#E87E66" transform="translate(230,184)"/>
<path d="M0 0 C0.33 0.66 0.66 1.32 1 2 C0.328125 3.91015625 0.328125 3.91015625 -0.75 6.0625 C-1.09546875 6.77535156 -1.4409375 7.48820313 -1.796875 8.22265625 C-3 10 -3 10 -6 11 C-6 11.99 -6 12.98 -6 14 C-6.66 14 -7.32 14 -8 14 C-6.58036591 8.32146365 -3.60636039 4.46825784 0 0 Z " fill="#F2C1B8" transform="translate(267,173)"/>
<path d="M0 0 C0.33 0.66 0.66 1.32 1 2 C-0.22053859 5.66161578 -1.36782304 6.16270474 -4.5625 8.1875 C-5.38878906 8.71730469 -6.21507812 9.24710938 -7.06640625 9.79296875 C-7.70449219 10.19128906 -8.34257812 10.58960938 -9 11 C-9.66 10.67 -10.32 10.34 -11 10 C-9.37660195 8.29115995 -7.70680947 6.62553283 -6 5 C-5.34 5 -4.68 5 -4 5 C-3.566875 4.0409375 -3.566875 4.0409375 -3.125 3.0625 C-2 1 -2 1 0 0 Z " fill="#E48972" transform="translate(279,182)"/>
<path d="M0 0 C1.98 0 3.96 0 6 0 C1.80559946 3.57757693 -2.30488053 7 -8 7 C-7.67 6.01 -7.34 5.02 -7 4 C-6.01 4 -5.02 4 -4 4 C-3.67 3.34 -3.34 2.68 -3 2 C-2.34 2.33 -1.68 2.66 -1 3 C-0.67 2.01 -0.34 1.02 0 0 Z " fill="#6A9CA0" transform="translate(287,363)"/>
<path d="M0 0 C0.99 0.33 1.98 0.66 3 1 C2.67 1.66 2.34 2.32 2 3 C1.84655791 4.88472859 1.75040429 6.77427874 1.68359375 8.6640625 C1.64169922 9.78554687 1.59980469 10.90703125 1.55664062 12.0625 C1.51732422 13.238125 1.47800781 14.41375 1.4375 15.625 C1.39431641 16.80835938 1.35113281 17.99171875 1.30664062 19.2109375 C1.20032574 22.14050328 1.09829358 25.07015588 1 28 C0.67 28 0.34 28 0 28 C0 18.76 0 9.52 0 0 Z " fill="#296C6A" transform="translate(230,211)"/>
<path d="M0 0 C3.37451667 3.37451667 3.63896399 4.39679084 4 9 C3.5625 12.375 3.5625 12.375 3 15 C2.67 15 2.34 15 2 15 C2 13.35 2 11.7 2 10 C1.34 10 0.68 10 0 10 C0 6.7 0 3.4 0 0 Z " fill="#6F9CA1" transform="translate(96,177)"/>
<path d="M0 0 C0.33 0 0.66 0 1 0 C3.1591338 6.87581298 4.35482211 12.78528371 4 20 C0.67554357 13.93775593 -0.36108506 6.86061613 0 0 Z " fill="#6DA0A1" transform="translate(101,218)"/>
<path d="M0 0 C2.97246802 2.54782974 4.41535288 5.45340883 6 9 C6 9.66 6 10.32 6 11 C5.34 11 4.68 11 4 11 C4 10.34 4 9.68 4 9 C2.68 8.67 1.36 8.34 0 8 C0 5.36 0 2.72 0 0 Z " fill="#F1B2A4" transform="translate(240,185)"/>
<path d="M0 0 C-1.66278555 0.71262238 -3.32610545 1.42402538 -4.9921875 2.12890625 C-6.29968625 2.69616738 -7.59754232 3.28637401 -8.8828125 3.90234375 C-12.42948256 5.56820393 -14.28100945 6.19915164 -18 5 C-15.75564555 3.96483652 -13.50593133 2.94685023 -11.25 1.9375 C-10.29867188 1.49567383 -10.29867188 1.49567383 -9.328125 1.04492188 C-3.48702331 -1.54098252 -3.48702331 -1.54098252 0 0 Z " fill="#9AC1C1" transform="translate(330,179)"/>
<path d="M0 0 C0.66 0.33 1.32 0.66 2 1 C1.1875 3.4375 1.1875 3.4375 0 6 C-3 7 -3 7 -5.1875 6.0625 C-5.785625 5.711875 -6.38375 5.36125 -7 5 C-4.69 3.35 -2.38 1.7 0 0 Z " fill="#6EA1A4" transform="translate(287,197)"/>
<path d="M0 0 C1.32 0.33 2.64 0.66 4 1 C1.48972295 3.5999298 -0.9863684 5.99091227 -4 8 C-4.66 8 -5.32 8 -6 8 C-6.33 6.68 -6.66 5.36 -7 4 C-3.535 3.505 -3.535 3.505 0 3 C0 2.01 0 1.02 0 0 Z " fill="#ECA696" transform="translate(278,195)"/>
<path d="M0 0 C3.34998521 1.11666174 3.79340222 1.74694925 5.6875 4.5625 C6.12449219 5.20316406 6.56148437 5.84382812 7.01171875 6.50390625 C7.33785156 6.99761719 7.66398438 7.49132812 8 8 C7.67 8.66 7.34 9.32 7 10 C3.17398693 8.54875366 1.77670876 6.64225296 0 3 C0 2.01 0 1.02 0 0 Z " fill="#F0C2B7" transform="translate(225,164)"/>
<path d="M0 0 C2.94721162 2.74395564 5.19168608 5.38337216 7 9 C6.67 9.66 6.34 10.32 6 11 C5.67 10.01 5.34 9.02 5 8 C3.35 7.67 1.7 7.34 0 7 C0 4.69 0 2.38 0 0 Z " fill="#EFB4A8" transform="translate(233,174)"/>
<path d="M0 0 C-2.43407005 0.86524753 -4.87143184 1.71742865 -7.3125 2.5625 C-8.34793945 2.9327832 -8.34793945 2.9327832 -9.40429688 3.31054688 C-14.66015625 5.11328125 -14.66015625 5.11328125 -18 4 C-17.34 4 -16.68 4 -16 4 C-16 3.34 -16 2.68 -16 2 C-14.08654673 1.46748234 -12.1690705 0.94940517 -10.25 0.4375 C-9.18265625 0.14746094 -8.1153125 -0.14257812 -7.015625 -0.44140625 C-4.15664073 -0.97098494 -2.68402617 -0.98370862 0 0 Z " fill="#F4BFB4" transform="translate(341,170)"/>
<path d="M0 0 C-1.65 0.66 -3.3 1.32 -5 2 C-5 2.66 -5 3.32 -5 4 C-6.8125 5.0625 -6.8125 5.0625 -9 6 C-9.99 5.67 -10.98 5.34 -12 5 C-8.98541648 1.5216344 -4.71726343 -2.35863172 0 0 Z " fill="#EA9887" transform="translate(331,144)"/>
<path d="M0 0 C4.60895683 1.31684481 8.14140235 3.15198745 12 6 C12 6.33 12 6.66 12 7 C10.35 7 8.7 7 7 7 C6.67 6.34 6.34 5.68 6 5 C3.47266765 4.34444881 3.47266765 4.34444881 1 4 C0.67 2.68 0.34 1.36 0 0 Z " fill="#F2BDAD" transform="translate(180,128)"/>
<path d="M0 0 C2.97 0.495 2.97 0.495 6 1 C6 1.66 6 2.32 6 3 C7.32 3 8.64 3 10 3 C10 4.32 10 5.64 10 7 C6.42032008 5.34784004 3.22017048 3.26875648 0 1 C0 0.67 0 0.34 0 0 Z " fill="#F0AF9F" transform="translate(224,200)"/>
<path d="M0 0 C3.85478218 -0.35858439 5.57759458 -0.2754818 8.875 1.875 C9.57625 2.57625 10.2775 3.2775 11 4 C11 4.66 11 5.32 11 6 C6.49197399 4.74194623 3.5087188 3.09592835 0 0 Z " fill="#7AA6A8" transform="translate(207,363)"/>
<path d="M0 0 C0.33 0.66 0.66 1.32 1 2 C-0.73397418 5.65047197 -2.19333016 7.55609075 -6 9 C-6 9.66 -6 10.32 -6 11 C-6.66 10.67 -7.32 10.34 -8 10 C-5.36 6.7 -2.72 3.4 0 0 Z " fill="#E18673" transform="translate(275,165)"/>
<path d="M0 0 C0.33 0 0.66 0 1 0 C1 5.28 1 10.56 1 16 C1.99 16.33 2.98 16.66 4 17 C2.02 17.99 2.02 17.99 0 19 C0 12.73 0 6.46 0 0 Z " fill="#2F6D6E" transform="translate(277,352)"/>
<path d="M0 0 C0.33 0.66 0.66 1.32 1 2 C1.66 2 2.32 2 3 2 C3.19335938 2.55429688 3.38671875 3.10859375 3.5859375 3.6796875 C3.97652344 4.76636719 3.97652344 4.76636719 4.375 5.875 C4.63023437 6.59429687 4.88546875 7.31359375 5.1484375 8.0546875 C5.93877783 10.18157994 5.93877783 10.18157994 8 12 C5.13275314 11.42655063 4.1385485 11.1385485 2 9 C1.875 6.375 1.875 6.375 2 4 C1.34 4 0.68 4 0 4 C0 2.68 0 1.36 0 0 Z " fill="#E48971" transform="translate(243,194)"/>
<path d="M0 0 C0.59167969 0.13277344 1.18335938 0.26554688 1.79296875 0.40234375 C5.85446525 1.31005178 9.91374171 2.2091113 14 3 C14 3.33 14 3.66 14 4 C12.41705218 4.05437607 10.83355744 4.09296271 9.25 4.125 C8.36828125 4.14820313 7.4865625 4.17140625 6.578125 4.1953125 C3.8864142 3.99139502 2.30095026 3.36551721 0 2 C0 1.34 0 0.68 0 0 Z " fill="#77A2A8" transform="translate(152,172)"/>
<path d="M0 0 C1.79133978 -0.05391993 3.58313899 -0.09275571 5.375 -0.125 C6.37273437 -0.14820313 7.37046875 -0.17140625 8.3984375 -0.1953125 C11 0 11 0 13 2 C4.57142857 3.42857143 4.57142857 3.42857143 0 1 C0 0.67 0 0.34 0 0 Z " fill="#EBA490" transform="translate(169,172)"/>
<path d="M0 0 C1.05960937 0.00676758 1.05960937 0.00676758 2.140625 0.01367188 C3.88545275 0.02546125 5.630237 0.04339676 7.375 0.0625 C3.84313168 2.21309309 0.71212007 2.4422728 -3.375 2.6875 C-4.54546875 2.76226562 -5.7159375 2.83703125 -6.921875 2.9140625 C-7.81390625 2.96304687 -8.7059375 3.01203125 -9.625 3.0625 C-9.625 2.4025 -9.625 1.7425 -9.625 1.0625 C-6.55966836 -0.47016582 -3.35745728 -0.04026471 0 0 Z " fill="#6E9B9D" transform="translate(355.625,337.9375)"/>
<path d="M0 0 C2.31 0 4.62 0 7 0 C6.67 0.66 6.34 1.32 6 2 C5.34 2 4.68 2 4 2 C3.67 2.99 3.34 3.98 3 5 C2.01 5.33 1.02 5.66 0 6 C0 4.02 0 2.04 0 0 Z " fill="#ECA598" transform="translate(281,170)"/>
<path d="M0 0 C-1.45264038 0.8638129 -2.9123163 1.71580454 -4.375 2.5625 C-5.59316406 3.27599609 -5.59316406 3.27599609 -6.8359375 4.00390625 C-7.55007813 4.33261719 -8.26421875 4.66132813 -9 5 C-9.66 4.67 -10.32 4.34 -11 4 C-10.3125 2.0625 -10.3125 2.0625 -9 0 C-5.60214108 -1.16242542 -3.3899051 -0.94484589 0 0 Z " fill="#F0ABA1" transform="translate(319,151)"/>
<path d="M0 0 C-1.4317616 0.69937202 -2.87067032 1.38412718 -4.3125 2.0625 C-5.51326172 2.63677734 -5.51326172 2.63677734 -6.73828125 3.22265625 C-9 4 -9 4 -12 3 C-11.67 2.01 -11.34 1.02 -11 0 C-9.54263913 -0.19491452 -8.08405407 -0.38069358 -6.625 -0.5625 C-5.81289063 -0.66691406 -5.00078125 -0.77132813 -4.1640625 -0.87890625 C-2 -1 -2 -1 0 0 Z " fill="#7AABAA" transform="translate(319,352)"/>
<path d="M0 0 C1.45947705 0.06006078 2.91779272 0.1488689 4.375 0.25 C5.59316406 0.31960938 5.59316406 0.31960938 6.8359375 0.390625 C9 1 9 1 10.2890625 3.046875 C10.64097656 4.01367188 10.64097656 4.01367188 11 5 C9.53932801 4.54917531 8.08151968 4.08906463 6.625 3.625 C5.81289062 3.36976563 5.00078125 3.11453125 4.1640625 2.8515625 C2 2 2 2 0 0 Z " fill="#7AABAC" transform="translate(179,350)"/>
<path d="M0 0 C2.64 0.66 5.28 1.32 8 2 C8 2.66 8 3.32 8 4 C3.545 4.495 3.545 4.495 -1 5 C-1 4.34 -1 3.68 -1 3 C-0.34 2.67 0.32 2.34 1 2 C0.67 1.34 0.34 0.68 0 0 Z " fill="#74A7A6" transform="translate(234,250)"/>
<path d="M0 0 C2.31 0.66 4.62 1.32 7 2 C7 2.66 7 3.32 7 4 C8.32 4.66 9.64 5.32 11 6 C9.02 6 7.04 6 5 6 C4.67 5.01 4.34 4.02 4 3 C3.01 3 2.02 3 1 3 C0.67 2.01 0.34 1.02 0 0 Z " fill="#88AFB2" transform="translate(200,191)"/>
<path d="M0 0 C-1.98 0.99 -3.96 1.98 -6 3 C-5.01 4.485 -5.01 4.485 -4 6 C-6.97 5.505 -6.97 5.505 -10 5 C-10 4.34 -10 3.68 -10 3 C-9.34 3 -8.68 3 -8 3 C-8 2.34 -8 1.68 -8 1 C-3.375 -1.125 -3.375 -1.125 0 0 Z " fill="#619798" transform="translate(338,176)"/>
<path d="M0 0 C4.8 3.32307692 4.8 3.32307692 5.8125 6.75 C5.874375 7.4925 5.93625 8.235 6 9 C4.68 8.67 3.36 8.34 2 8 C2.33 6.68 2.66 5.36 3 4 C2.01 3.67 1.02 3.34 0 3 C0 2.01 0 1.02 0 0 Z " fill="#E78471" transform="translate(220,160)"/>
<path d="M0 0 C7.45937249 0.61142397 7.45937249 0.61142397 10 2.4375 C11 4 11 4 11 6 C6.95743617 4.77782954 3.50711041 3.37245704 0 1 C0 0.67 0 0.34 0 0 Z " fill="#F1BEAC" transform="translate(185,152)"/>
<path d="M0 0 C0.66 0 1.32 0 2 0 C2.05395478 1.62463842 2.09277195 3.24978541 2.125 4.875 C2.14820312 5.77992188 2.17140625 6.68484375 2.1953125 7.6171875 C2 10 2 10 0 12 C-0.19401633 10.18818595 -0.38004375 8.37551468 -0.5625 6.5625 C-0.66691406 5.55316406 -0.77132812 4.54382813 -0.87890625 3.50390625 C-0.91886719 2.67761719 -0.95882812 1.85132813 -1 1 C-0.67 0.67 -0.34 0.34 0 0 Z " fill="#37777C" transform="translate(113,295)"/>
<path d="M0 0 C3 3.75 3 3.75 3 6 C3.66 6 4.32 6 5 6 C5.33 5.01 5.66 4.02 6 3 C6.33 3.66 6.66 4.32 7 5 C6.0625 7.125 6.0625 7.125 5 9 C2 8 2 8 0.8125 6.1875 C0 4 0 4 0 0 Z " fill="#F9DBD4" transform="translate(246,196)"/>
<path d="M0 0 C0.33 0.99 0.66 1.98 1 3 C-1.39509338 5.89932357 -3.31245243 6.50168276 -7 7 C-2.25 1.125 -2.25 1.125 0 0 Z " fill="#E18470" transform="translate(287,175)"/>
<path d="M0 0 C3.99455527 0.61454696 6.74466336 2.70646737 10 5 C6.98968256 5.93423645 6.13349732 6.04449911 3 5 C2.67 4.01 2.34 3.02 2 2 C1.34 1.34 0.68 0.68 0 0 Z " fill="#EFB1A8" transform="translate(197,164)"/>
<path d="M0 0 C2.64 0 5.28 0 8 0 C5.45394698 2.00047023 3.0335364 3.82572785 0 5 C-0.99 4.67 -1.98 4.34 -3 4 C-1.68 3.34 -0.36 2.68 1 2 C0.67 1.34 0.34 0.68 0 0 Z " fill="#8FBABA" transform="translate(300,356)"/>
<path d="M0 0 C1.508013 0.92455559 3.00624917 1.8650747 4.5 2.8125 C5.75296875 3.59560547 5.75296875 3.59560547 7.03125 4.39453125 C7.6809375 4.92433594 8.330625 5.45414063 9 6 C9 6.99 9 7.98 9 9 C8.34 8.67 7.68 8.34 7 8 C7 7.34 7 6.68 7 6 C5.68 5.67 4.36 5.34 3 5 C3 4.34 3 3.68 3 3 C2.01 2.67 1.02 2.34 0 2 C0 1.34 0 0.68 0 0 Z " fill="#E58274" transform="translate(200,142)"/>
<path d="M0 0 C1.46224799 0.42423244 2.91973412 0.86490245 4.375 1.3125 C5.18710938 1.55613281 5.99921875 1.79976563 6.8359375 2.05078125 C9 3 9 3 11 6 C10.01 6 9.02 6 8 6 C8 5.34 8 4.68 8 4 C5.69 3.67 3.38 3.34 1 3 C0.67 2.01 0.34 1.02 0 0 Z " fill="#E18B74" transform="translate(171,125)"/>
<path d="M0 0 C1.32 0 2.64 0 4 0 C4 1.32 4 2.64 4 4 C2.68 4.33 1.36 4.66 0 5 C-0.5625 3.0625 -0.5625 3.0625 -1 1 C-0.67 0.67 -0.34 0.34 0 0 Z " fill="#387E7A" transform="translate(265,250)"/>
<path d="M0 0 C2.97 0.495 2.97 0.495 6 1 C6 1.99 6 2.98 6 4 C4.35 4 2.7 4 1 4 C0.67 2.68 0.34 1.36 0 0 Z " fill="#2D7078" transform="translate(280,203)"/>
<path d="M0 0 C0.33 0 0.66 0 1 0 C1 2.97 1 5.94 1 9 C0.01 9.495 0.01 9.495 -1 10 C-2.31223496 6.06329512 -1.24296256 3.87511856 0 0 Z " fill="#619899" transform="translate(400,200)"/>
<path d="M0 0 C1.4606285 2.64738916 2 3.89448334 2 7 C0.35 6.67 -1.3 6.34 -3 6 C-3 5.34 -3 4.68 -3 4 C-2.34 3.67 -1.68 3.34 -1 3 C-0.67 2.01 -0.34 1.02 0 0 Z " fill="#306F6E" transform="translate(221,363)"/>
<path d="M0 0 C2.31 0 4.62 0 7 0 C7.33 1.32 7.66 2.64 8 4 C5.64828869 3.40138258 3.3140622 2.73075648 1 2 C0.67 1.34 0.34 0.68 0 0 Z " fill="#77A7A6" transform="translate(199,359)"/>
<path d="M0 0 C1.093125 0.0825 2.18625 0.165 3.3125 0.25 C0.10913178 3.08374881 -2.46837253 3.7705537 -6.6875 4.25 C-4.79150483 0.68106792 -4.16790733 0.28256999 0 0 Z " fill="#78A0A1" transform="translate(328.6875,345.75)"/>
<path d="M0 0 C1.98 0 3.96 0 6 0 C6.66 1.32 7.32 2.64 8 4 C5.64828869 3.40138258 3.3140622 2.73075648 1 2 C0.67 1.34 0.34 0.68 0 0 Z " fill="#F3B3A9" transform="translate(187,179)"/>
<path d="M0 0 C-1.98 1.32 -3.96 2.64 -6 4 C-6.66 3.67 -7.32 3.34 -8 3 C-7.67 2.01 -7.34 1.02 -7 0 C-2.25 -1.125 -2.25 -1.125 0 0 Z " fill="#F0B3A7" transform="translate(272,204)"/>
<path d="M0 0 C0.6875 2.0625 0.6875 2.0625 1 4 C-1.02045442 3.39816251 -3.02111039 2.72693904 -5 2 C-5.33 1.34 -5.66 0.68 -6 0 C-3 -1 -3 -1 0 0 Z " fill="#F4BAB0" transform="translate(207,186)"/>
<path d="M0 0 C1.98 0 3.96 0 6 0 C5.01 0.495 5.01 0.495 4 1 C4 1.66 4 2.32 4 3 C1.69 3 -0.62 3 -3 3 C-2.01 2.67 -1.02 2.34 0 2 C0 1.34 0 0.68 0 0 Z " fill="#EFB7A9" transform="translate(359,162)"/>
<path d="M0 0 C0.66 0.33 1.32 0.66 2 1 C1 3 1 3 -0.84765625 3.6328125 C-1.57855469 3.79523438 -2.30945313 3.95765625 -3.0625 4.125 C-3.79597656 4.29257813 -4.52945312 4.46015625 -5.28515625 4.6328125 C-5.85105469 4.75398437 -6.41695313 4.87515625 -7 5 C-4.63707344 2.47411298 -3.33537489 1.11179163 0 0 Z " fill="#E58675" transform="translate(320,155)"/>
</svg>
